<svg width="37" height="37" viewBox="0 0 37 37" fill="none" xmlns="http://www.w3.org/2000/svg">
<path fill-rule="evenodd" clip-rule="evenodd" d="M34.5 2.5C32.2348 0.29295 29.5 0.500001 27 2.49999L25.5189 3.81977L10.2333 18.7133C9.98555 18.9548 9.80978 19.2574 9.72479 19.5886L7.79138 27.1239C7.62665 27.766 7.8197 28.4451 8.29992 28.9128C8.78014 29.3808 9.47712 29.569 10.136 29.4085L17.8696 27.5246C18.2096 27.4417 18.52 27.2705 18.7678 27.029L33.9422 12.2438L35 11C37 8.5 37.5 5.5 35 3L34.5 2.5ZM29.5 4.99999C30.255 4.26431 31.745 4.26433 32.5 5C33.255 5.7357 33.255 7.26433 32.5 8L30 10.5L27 7.49999L29.5 4.99999ZM24.5 9.99999L27.5 13L16.4123 23.996L12.3243 24.9918L13.3463 21.0086L24.5 9.99999ZM4 11C4 9.95958 4.93222 8.99999 6 8.99999H14.5C15.5 8.49999 16 8.0404 16 6.99999C16 5.95958 15.5 5.49999 14.5 4.99999L5.80023 4.97473C3 4.99999 0 7.50502 0 10.6263V31C0 34.1213 2.58307 37 5.78644 37H26C29.2035 37 32 34.5 32 31V23C32 21.9597 31.0678 21 30 21C28.9322 21 28 21.9597 28 23V31C28 32.0404 27.0678 33 26 33H6C4.93222 33 4 32.0404 4 31V11Z" fill="black"/>
</svg>
