<svg width="36" height="37" viewBox="0 0 36 37" fill="none" xmlns="http://www.w3.org/2000/svg">
<path fill-rule="evenodd" clip-rule="evenodd" d="M6 8.02526C4.93222 8.02526 4 8.98485 4 10.0253V30.0253C4 31.0657 4.93222 32.0253 6 32.0253H26C27.0678 32.0253 28 31.0657 28 30.0253V22.0253C28 20.985 28.9322 20.0253 30 20.0253C31.0678 20.0253 32 20.985 32 22.0253V30.0253C32 33.5253 29.2035 36.0253 26 36.0253H5.78644C2.58307 36.0253 0 33.1466 0 30.0253V9.65153C0 6.53028 3 4.02526 5.80023 4L14.5 4.02526C15.5 4.52526 16 4.98485 16 6.02526C16 7.06567 15.5 7.52526 14.5 8.02526H6Z" fill="#D9D9D9"/>
<path fill-rule="evenodd" clip-rule="evenodd" d="M27.8176 1.32929C29.6288 -0.443104 32.5651 -0.443089 34.3763 1.32929L34.6416 1.58884C36.4528 3.36122 36.4528 6.23483 34.6416 8.0072L31.9559 10.6354L19.8227 22.5087C19.6246 22.7027 19.3764 22.8402 19.1045 22.9067L12.9209 24.4196C12.3941 24.5485 11.8368 24.3973 11.4528 24.0215C11.0688 23.6459 10.9145 23.1005 11.0462 22.585L12.5921 16.5337C12.6601 16.2677 12.8006 16.0248 12.9987 15.8308L25.2208 3.87053L27.8176 1.32929ZM32.1901 3.46874C31.5864 2.87795 30.6075 2.87795 30.0038 3.46874L28.4794 4.96056L30.8839 7.40557L32.4554 5.86776C33.059 5.27697 33.059 4.31909 32.4554 3.72829L32.1901 3.46874ZM28.6972 9.54541L26.2927 7.1004L15.4878 17.674L14.6706 20.8728L17.9394 20.0731L28.6972 9.54541Z" fill="#D9D9D9"/>
</svg>
