<svg id="visual" viewBox="0 0 900 600" width="900" height="600" xmlns="http://www.w3.org/2000/svg" xmlns:xlink="http://www.w3.org/1999/xlink" version="1.1"><path d="M0 541L6.5 540C13 539 26 537 39 536.2C52 535.3 65 535.7 78 535.7C91 535.7 104 535.3 117.2 537.7C130.3 540 143.7 545 156.8 543.7C170 542.3 183 534.7 196 531C209 527.3 222 527.7 235 528.7C248 529.7 261 531.3 274 531.7C287 532 300 531 313 533.7C326 536.3 339 542.7 352 543.5C365 544.3 378 539.7 391 539.7C404 539.7 417 544.3 430.2 545.8C443.3 547.3 456.7 545.7 469.8 545.3C483 545 496 546 509 543.3C522 540.7 535 534.3 548 533.5C561 532.7 574 537.3 587 538.7C600 540 613 538 626 535.5C639 533 652 530 665 531.2C678 532.3 691 537.7 704 538.7C717 539.7 730 536.3 743.2 536.5C756.3 536.7 769.7 540.3 782.8 542.5C796 544.7 809 545.3 822 542.7C835 540 848 534 861 534.3C874 534.7 887 541.3 893.5 544.7L900 548L900 601L893.5 601C887 601 874 601 861 601C848 601 835 601 822 601C809 601 796 601 782.8 601C769.7 601 756.3 601 743.2 601C730 601 717 601 704 601C691 601 678 601 665 601C652 601 639 601 626 601C613 601 600 601 587 601C574 601 561 601 548 601C535 601 522 601 509 601C496 601 483 601 469.8 601C456.7 601 443.3 601 430.2 601C417 601 404 601 391 601C378 601 365 601 352 601C339 601 326 601 313 601C300 601 287 601 274 601C261 601 248 601 235 601C222 601 209 601 196 601C183 601 170 601 156.8 601C143.7 601 130.3 601 117.2 601C104 601 91 601 78 601C65 601 52 601 39 601C26 601 13 601 6.5 601L0 601Z" fill="#247b40"></path><path d="M0 553L6.5 553.7C13 554.3 26 555.7 39 556.8C52 558 65 559 78 559C91 559 104 558 117.2 557.7C130.3 557.3 143.7 557.7 156.8 557.8C170 558 183 558 196 558.5C209 559 222 560 235 560C248 560 261 559 274 557.7C287 556.3 300 554.7 313 553.2C326 551.7 339 550.3 352 551.8C365 553.3 378 557.7 391 558.3C404 559 417 556 430.2 553.8C443.3 551.7 456.7 550.3 469.8 552C483 553.7 496 558.3 509 559.5C522 560.7 535 558.3 548 556C561 553.7 574 551.3 587 551C600 550.7 613 552.3 626 552.3C639 552.3 652 550.7 665 549.5C678 548.3 691 547.7 704 549.8C717 552 730 557 743.2 558.8C756.3 560.7 769.7 559.3 782.8 558.2C796 557 809 556 822 554.7C835 553.3 848 551.7 861 551C874 550.3 887 550.7 893.5 550.8L900 551L900 601L893.5 601C887 601 874 601 861 601C848 601 835 601 822 601C809 601 796 601 782.8 601C769.7 601 756.3 601 743.2 601C730 601 717 601 704 601C691 601 678 601 665 601C652 601 639 601 626 601C613 601 600 601 587 601C574 601 561 601 548 601C535 601 522 601 509 601C496 601 483 601 469.8 601C456.7 601 443.3 601 430.2 601C417 601 404 601 391 601C378 601 365 601 352 601C339 601 326 601 313 601C300 601 287 601 274 601C261 601 248 601 235 601C222 601 209 601 196 601C183 601 170 601 156.8 601C143.7 601 130.3 601 117.2 601C104 601 91 601 78 601C65 601 52 601 39 601C26 601 13 601 6.5 601L0 601Z" fill="#1e6029"></path><path d="M0 572L6.5 570.7C13 569.3 26 566.7 39 567.2C52 567.7 65 571.3 78 572.3C91 573.3 104 571.7 117.2 570C130.3 568.3 143.7 566.7 156.8 566.8C170 567 183 569 196 570C209 571 222 571 235 569.8C248 568.7 261 566.3 274 566C287 565.7 300 567.3 313 569C326 570.7 339 572.3 352 572.3C365 572.3 378 570.7 391 570.5C404 570.3 417 571.7 430.2 570.8C443.3 570 456.7 567 469.8 567.3C483 567.7 496 571.3 509 572.5C522 573.7 535 572.3 548 572.3C561 572.3 574 573.7 587 574C600 574.3 613 573.7 626 572.8C639 572 652 571 665 569.3C678 567.7 691 565.3 704 565.2C717 565 730 567 743.2 568C756.3 569 769.7 569 782.8 569.8C796 570.7 809 572.3 822 572.5C835 572.7 848 571.3 861 569.7C874 568 887 566 893.5 565L900 564L900 601L893.5 601C887 601 874 601 861 601C848 601 835 601 822 601C809 601 796 601 782.8 601C769.7 601 756.3 601 743.2 601C730 601 717 601 704 601C691 601 678 601 665 601C652 601 639 601 626 601C613 601 600 601 587 601C574 601 561 601 548 601C535 601 522 601 509 601C496 601 483 601 469.8 601C456.7 601 443.3 601 430.2 601C417 601 404 601 391 601C378 601 365 601 352 601C339 601 326 601 313 601C300 601 287 601 274 601C261 601 248 601 235 601C222 601 209 601 196 601C183 601 170 601 156.8 601C143.7 601 130.3 601 117.2 601C104 601 91 601 78 601C65 601 52 601 39 601C26 601 13 601 6.5 601L0 601Z" fill="#154614"></path></svg>