<svg width="928" height="40" viewBox="0 0 928 40" fill="none" xmlns="http://www.w3.org/2000/svg">
<path d="M12 13C14.3936 11.8493 18.5 11 18.5 11C25 9.00003 38 5.00003 51 4.00003C64 3.00003 77 5.00003 90 6.50003C103 8.00003 116 9.00005 129.2 10.7C142.3 12.3 155.7 14.7 168.8 14.7C182 14.7 195 12.3 208 11C221 9.70003 234 9.30005 247 10.2C260 11 273 13 286 12.7C299 12.3 312 9.70002 325 7.30002C338 5.00002 351 3.00005 364 2.70005C377 2.30005 390 3.70002 403 3.80002C416 4.00002 429 3.00005 442.2 2.20005C455.3 1.30005 468.7 0.700021 481.8 2.30002C495 4.00002 508 8.00002 521 9.80002C534 11.7 547 11.3 560 9.70005C573 8.00005 586 5.00002 599 5.80002C612 6.70002 625 11.3 638 10.8C651 10.3 664 4.70005 677 2.20005C690 -0.299955 703 0.300033 716 1.00003C729 1.70003 742 2.30005 755.2 4.20005C768.3 6.00005 781.7 9.00005 794.8 8.70005C808 8.30005 821 4.70003 834 3.50003C847 2.30003 860 3.70003 873 5.50003C886 7.30003 899 9.70002 905.5 10.8C905.5 10.8 909.552 11.1815 912 12C922.5 15.5108 927.5 40 927.5 40H912H905.5C899 40 886 40 873 40C860 40 847 40 834 40C821 40 808 40 794.8 40C781.7 40 768.3 40 755.2 40C742 40 729 40 716 40C703 40 690 40 677 40C664 40 651 40 638 40C625 40 612 40 599 40C586 40 573 40 560 40C547 40 534 40 521 40C508 40 495 40 481.8 40C468.7 40 455.3 40 442.2 40C429 40 416 40 403 40C390 40 377 40 364 40C351 40 338 40 325 40C312 40 299 40 286 40C273 40 260 40 247 40C234 40 221 40 208 40C195 40 182 40 168.8 40C155.7 40 142.3 40 129.2 40C116 40 103 40 90 40C77 40 64 40 51 40C38 40 25 40 18.5 40H12H0C0 40 1.60063 17.9994 12 13Z" fill="#247B40"/>
<path d="M12 17C14.542 16.7184 18.5 17.8 18.5 17.8C25 18.7 38 20.3 51 19.5C64 18.7 77 15.3 90 15C103 14.7 116 17.3 129.2 18.3C142.3 19.3 155.7 18.7 168.8 18.5C182 18.3 195 18.7 208 18.8C221 19 234 19 247 18C260 17 273 15 286 14C299 13 312 13.0001 325 13.7001C338 14.3001 351 15.7001 364 17.2001C377 18.7001 390 20.3001 403 19.7001C416 19.0001 429 16.0001 442.2 15.7001C455.3 15.3001 468.7 17.7001 481.8 19.2001C495 20.7001 508 21.3 521 19.8C534 18.3 547 14.7001 560 13.7001C573 12.7001 586 14.3 599 15.8C612 17.3 625 18.7001 638 19.2001C651 19.7001 664 19.3 677 17.5C690 15.7 703 12.3 716 10.8C729 9.30003 742 9.70003 755.2 11.8C768.3 14 781.7 18 794.8 18.5C808 19 821 16 834 14.8C847 13.7 860 14.3 873 15.5C886 16.7 899 18.3001 905.5 19.2001C905.5 19.2001 909.55 19.2648 912 20C914.45 20.7353 919.194 23.1463 922 27C925.095 31.2504 925.5 40 925.5 40H912H905.5C899 40 886 40 873 40C860 40 847 40 834 40C821 40 808 40 794.8 40C781.7 40 768.3 40 755.2 40C742 40 729 40 716 40C703 40 690 40 677 40C664 40 651 40 638 40C625 40 612 40 599 40C586 40 573 40 560 40C547 40 534 40 521 40C508 40 495 40 481.8 40C468.7 40 455.3 40 442.2 40C429 40 416 40 403 40C390 40 377 40 364 40C351 40 338 40 325 40C312 40 299 40 286 40C273 40 260 40 247 40C234 40 221 40 208 40C195 40 182 40 168.8 40C155.7 40 142.3 40 129.2 40C116 40 103 40 90 40C77 40 64 40 51 40C38 40 25 40 18.5 40H12H2.5C2.5 40 2.341 18.0701 12 17Z" fill="#1E6029"/>
<path d="M12 24C14.377 23.0881 18.5 23.5 18.5 23.5C18.5 23.5 38 22 51 22.3C64 22.7 77 24.3 90 24.3C103 24.3 116 22.7 129.2 21.5C142.3 20.3 155.7 19.7 168.8 20.3C182 21 195 23 208 23.5C221 24 234 23 247 23.2C260 23.3 273 24.7 286 24.2C299 23.7 312 21.3 325 21.3C338 21.3 351 23.7 364 24C377 24.3 390 22.7 403 21.5C416 20.3 429 19.7 442.2 20C455.3 20.3 468.7 21.7 481.8 21.8C495 22 508 21 521 21.3C534 21.7 547 23.3 560 24C573 24.7 586 24.3 599 24C612 23.7 625 23.3 638 22.5C651 21.7 664 20.3 677 20.3C690 20.3 703 21.7 716 21.7C729 21.7 742 20.3 755.2 20.2C768.3 20 781.7 21 794.8 21.7C808 22.3 821 22.7 834 23C847 23.3 860 23.7 873 23.8C886 24 899 24 905.5 24C905.5 24 912.695 23.9363 915 25C921.5 28 921.5 40 921.5 40H912H905.5C899 40 886 40 873 40C860 40 847 40 834 40C821 40 808 40 794.8 40C781.7 40 768.3 40 755.2 40C742 40 729 40 716 40C703 40 690 40 677 40C664 40 651 40 638 40C625 40 612 40 599 40C586 40 573 40 560 40C547 40 534 40 521 40C508 40 495 40 481.8 40C468.7 40 455.3 40 442.2 40C429 40 416 40 403 40C390 40 377 40 364 40C351 40 338 40 325 40C312 40 299 40 286 40C273 40 260 40 247 40C234 40 221 40 208 40C195 40 182 40 168.8 40C155.7 40 142.3 40 129.2 40C116 40 103 40 90 40C77 40 64 40 51 40C38 40 25 40 18.5 40H12H6C6 40 5.76951 26.3904 12 24Z" fill="#154614"/>
</svg>
