<svg  viewBox="0 0 48 48" fill="none" xmlns="http://www.w3.org/2000/svg">
<path d="M1.84615 22.1538H11.0769H20.3077C21.1348 22.1538 22.1538 21.1348 22.1538 20.3077V11.0843V1.84615C22.1538 1.01908 21.1348 0 20.3077 0H1.84615C1.07815 0 0 1.01908 0 1.84615V20.3077C0 21.1348 1.01908 22.1538 1.84615 22.1538ZM3.79913 3.6923H18.3837V18.2769H3.79913V11.0842V3.6923Z" fill="#B5D1DD"/>
<path d="M27.6923 22.1538H36.9231H46.1539C46.981 22.1538 48 21.1348 48 20.3077V11.0843V1.84615C48 1.01908 46.981 0 46.1539 0H27.6923C26.9243 0 25.8462 1.01908 25.8462 1.84615V20.3077C25.8462 21.1348 26.8653 22.1538 27.6923 22.1538ZM29.6453 3.6923H44.2299V18.2769H29.6453V11.0842V3.6923Z" fill="#B5D1DD"/>
<path d="M27.6923 48H36.9231H46.1539C46.981 48 48 46.9809 48 46.1538V36.9304V27.6923C48 26.8652 46.981 25.8461 46.1539 25.8461H27.6923C26.9243 25.8461 25.8462 26.8652 25.8462 27.6923V46.1538C25.8462 46.9809 26.8653 48 27.6923 48ZM29.6453 29.5384H44.2299V44.1231H29.6453V36.9304V29.5384Z" fill="#B5D1DD"/>
<path d="M1.84615 48H11.0769H20.3077C21.1348 48 22.1538 46.9809 22.1538 46.1538V36.9304V27.6923C22.1538 26.8652 21.1348 25.8462 20.3077 25.8462H1.84615C1.07815 25.8462 0 26.8652 0 27.6923V46.1538C0 46.9809 1.01908 48 1.84615 48ZM3.79913 29.5385H18.3837V44.1231H3.79913V36.9304V29.5385Z" fill="#B5D1DD"/>
</svg>
