<svg width="500" height="498" viewBox="0 0 500 498" fill="none" xmlns="http://www.w3.org/2000/svg">
<path d="M471.634 156.897C472.291 153.466 472.733 149.992 472.733 146.4C472.733 114.134 445.391 88 411.667 88C387.606 88 366.996 101.417 357.058 120.748C348.737 109.783 335.318 102.585 320.067 102.585C294.77 102.585 274.267 122.208 274.267 146.4C274.267 149.948 274.816 153.364 275.671 156.664C265.565 164.694 259 176.651 259 190.2C259 214.392 279.503 234 304.8 234H442.2C467.497 234 488 214.392 488 190.2C488 176.783 481.557 164.927 471.634 156.897Z" fill="#DBDEE0"/>
<path d="M244 0L488 468H0L244 0Z" fill="#3DB39E"/>
<path d="M152 161.086L197.75 205L243.5 161.086L289.25 205L335 161.086L258.75 0H228.25L152 161.086Z" fill="#E4E7E7"/>
<path d="M274 424H305V468H274V424Z" fill="#4A4A4A"/>
<path d="M365 424L316.606 365.325H350.267L289.259 292L228.252 365.325H261.806L213 424H365Z" fill="#277264"/>
<path d="M106.867 264L0 468H15.2667L229 264H106.867Z" fill="#349886"/>
<path d="M212.634 215.897C213.275 212.466 213.733 208.992 213.733 205.4C213.733 173.134 186.391 147 152.667 147C128.606 147 107.996 160.417 98.0578 179.748C89.7375 168.783 76.3181 161.585 61.0667 161.585C35.7698 161.585 15.2667 181.208 15.2667 205.4C15.2667 208.948 15.8163 212.364 16.6559 215.664C6.56467 223.694 0 235.651 0 249.2C0 273.392 20.5031 293 45.8 293H183.2C208.497 293 229 273.392 229 249.2C229 235.783 222.557 223.927 212.634 215.897Z" fill="#ECEEEE"/>
</svg>
