<svg width="960" height="417" viewBox="0 0 960 417" fill="none" xmlns="http://www.w3.org/2000/svg">
<g clip-path="url(#clip0_4_15)">
<path d="M0 232.439L7 234.138C14 235.759 28 239.157 41.8 237.844C55.7 236.532 69.3 230.663 83.2 228.423C97 226.261 111 227.806 125 228.809C139 229.891 153 230.354 167 231.126C181 231.898 195 232.979 208.8 236.068C222.7 239.157 236.3 244.254 250.2 246.493C264 248.656 278 247.883 292 244.563C306 241.165 320 235.296 334 232.825C348 230.354 362 231.435 375.8 234.601C389.7 237.844 403.3 243.25 417.2 243.791C431 244.254 445 239.929 459 237.844C473 235.759 487 236.068 501 238.076C515 240.161 529 244.022 542.8 242.864C556.7 241.706 570.3 235.528 584.2 233.211C598 230.894 612 232.439 626 233.752C640 234.987 654 236.068 668 238.848C682 241.706 696 246.339 709.8 246.725C723.7 247.111 737.3 243.25 751.2 242.246C765 241.165 779 243.018 793 241.319C807 239.621 821 234.524 835 233.211C849 231.898 863 234.524 876.8 234.215C890.7 233.983 904.3 230.894 918.2 230.354C932 229.891 946 231.898 953 232.979L960 233.983V417.772H953C946 417.772 932 417.772 918.2 417.772C904.3 417.772 890.7 417.772 876.8 417.772C863 417.772 849 417.772 835 417.772C821 417.772 807 417.772 793 417.772C779 417.772 765 417.772 751.2 417.772C737.3 417.772 723.7 417.772 709.8 417.772C696 417.772 682 417.772 668 417.772C654 417.772 640 417.772 626 417.772C612 417.772 598 417.772 584.2 417.772C570.3 417.772 556.7 417.772 542.8 417.772C529 417.772 515 417.772 501 417.772C487 417.772 473 417.772 459 417.772C445 417.772 431 417.772 417.2 417.772C403.3 417.772 389.7 417.772 375.8 417.772C362 417.772 348 417.772 334 417.772C320 417.772 306 417.772 292 417.772C278 417.772 264 417.772 250.2 417.772C236.3 417.772 222.7 417.772 208.8 417.772C195 417.772 181 417.772 167 417.772C153 417.772 139 417.772 125 417.772C111 417.772 97 417.772 83.2 417.772C69.3 417.772 55.7 417.772 41.8 417.772C28 417.772 14 417.772 7 417.772H0V232.439Z" fill="#6AA5CE"/>
<path d="M0 251.744L7 253.443C14 255.065 28 258.463 41.8 256.996C55.7 255.606 69.3 249.428 83.2 247.111C97 244.794 111 246.339 125 248.656C139 250.972 153 254.061 167 255.606C181 257.15 195 257.15 208.8 256.378C222.7 255.606 236.3 254.061 250.2 251.744C264 249.428 278 246.339 292 245.953C306 245.567 320 247.883 334 249.428C348 250.972 362 251.744 375.8 253.057C389.7 254.293 403.3 256.146 417.2 256.609C431 257.15 445 256.378 459 257.304C473 258.154 487 260.779 501 258.154C515 255.606 529 247.883 542.8 246.184C556.7 244.563 570.3 248.887 584.2 253.134C598 257.382 612 261.552 626 259.621C640 257.691 654 249.659 668 248.501C682 247.343 696 253.057 709.8 254.061C723.7 255.065 737.3 251.513 751.2 252.517C765 253.521 779 259.235 793 261.783C807 264.332 821 263.868 835 259.621C849 255.374 863 247.343 876.8 246.107C890.7 244.794 904.3 250.2 918.2 254.602C932 258.926 946 262.324 953 263.946L960 265.644V417.772H953C946 417.772 932 417.772 918.2 417.772C904.3 417.772 890.7 417.772 876.8 417.772C863 417.772 849 417.772 835 417.772C821 417.772 807 417.772 793 417.772C779 417.772 765 417.772 751.2 417.772C737.3 417.772 723.7 417.772 709.8 417.772C696 417.772 682 417.772 668 417.772C654 417.772 640 417.772 626 417.772C612 417.772 598 417.772 584.2 417.772C570.3 417.772 556.7 417.772 542.8 417.772C529 417.772 515 417.772 501 417.772C487 417.772 473 417.772 459 417.772C445 417.772 431 417.772 417.2 417.772C403.3 417.772 389.7 417.772 375.8 417.772C362 417.772 348 417.772 334 417.772C320 417.772 306 417.772 292 417.772C278 417.772 264 417.772 250.2 417.772C236.3 417.772 222.7 417.772 208.8 417.772C195 417.772 181 417.772 167 417.772C153 417.772 139 417.772 125 417.772C111 417.772 97 417.772 83.2 417.772C69.3 417.772 55.7 417.772 41.8 417.772C28 417.772 14 417.772 7 417.772H0V251.744Z" fill="#5F9AC5"/>
<path d="M0 266.417L7 264.486C14 262.556 28 258.694 41.8 257.382C55.7 256.146 69.3 257.382 83.2 261.243C97 265.104 111 271.591 125 274.293C139 276.996 153 275.915 167 274.293C181 272.594 195 270.278 208.8 268.193C222.7 266.185 236.3 264.332 250.2 264.641C264 264.872 278 267.189 292 269.351C306 271.59 320 273.598 334 271.282C348 268.965 362 262.324 375.8 260.007C389.7 257.691 403.3 259.698 417.2 260.625C431 261.552 445 261.243 459 263.559C473 265.876 487 270.818 501 273.367C515 275.915 529 276.224 542.8 275.838C556.7 275.452 570.3 274.371 584.2 271.977C598 269.506 612 265.644 626 265.258C640 264.872 654 267.961 668 268.733C682 269.506 696 267.961 709.8 267.189C723.7 266.417 737.3 266.417 751.2 264.718C765 263.096 779 259.698 793 258.849C807 257.922 821 259.467 835 262.556C849 265.644 863 270.278 876.8 271.05C890.7 271.822 904.3 268.733 918.2 267.343C932 265.876 946 266.185 953 266.262L960 266.417V417.772H953C946 417.772 932 417.772 918.2 417.772C904.3 417.772 890.7 417.772 876.8 417.772C863 417.772 849 417.772 835 417.772C821 417.772 807 417.772 793 417.772C779 417.772 765 417.772 751.2 417.772C737.3 417.772 723.7 417.772 709.8 417.772C696 417.772 682 417.772 668 417.772C654 417.772 640 417.772 626 417.772C612 417.772 598 417.772 584.2 417.772C570.3 417.772 556.7 417.772 542.8 417.772C529 417.772 515 417.772 501 417.772C487 417.772 473 417.772 459 417.772C445 417.772 431 417.772 417.2 417.772C403.3 417.772 389.7 417.772 375.8 417.772C362 417.772 348 417.772 334 417.772C320 417.772 306 417.772 292 417.772C278 417.772 264 417.772 250.2 417.772C236.3 417.772 222.7 417.772 208.8 417.772C195 417.772 181 417.772 167 417.772C153 417.772 139 417.772 125 417.772C111 417.772 97 417.772 83.2 417.772C69.3 417.772 55.7 417.772 41.8 417.772C28 417.772 14 417.772 7 417.772H0V266.417Z" fill="#548EBD"/>
<path d="M0 291.128L7 290.973C14 290.896 28 290.587 41.8 290.201C55.7 289.815 69.3 289.352 83.2 288.271C97 287.267 111 285.722 125 286.34C139 287.035 153 289.815 167 288.039C181 286.263 195 279.776 208.8 278.541C222.7 277.228 236.3 281.089 250.2 283.019C264 284.95 278 284.95 292 284.178C306 283.406 320 281.861 334 281.475C348 281.089 362 281.861 375.8 283.251C389.7 284.718 403.3 286.726 417.2 287.035C431 287.267 445 285.722 459 283.792C473 281.861 487 279.544 501 280.471C515 281.321 529 285.491 542.8 285.491C556.7 285.491 570.3 281.321 584.2 281.475C598 281.629 612 285.954 626 288.579C640 291.128 654 291.9 668 291.668C682 291.359 696 290.124 709.8 289.197C723.7 288.271 737.3 287.807 751.2 287.807C765 287.807 779 288.271 793 285.491C807 282.633 821 276.456 835 275.838C849 275.143 863 280.085 876.8 282.633C890.7 285.182 904.3 285.491 918.2 284.178C932 282.865 946 280.085 953 278.618L960 277.228V417.772H953C946 417.772 932 417.772 918.2 417.772C904.3 417.772 890.7 417.772 876.8 417.772C863 417.772 849 417.772 835 417.772C821 417.772 807 417.772 793 417.772C779 417.772 765 417.772 751.2 417.772C737.3 417.772 723.7 417.772 709.8 417.772C696 417.772 682 417.772 668 417.772C654 417.772 640 417.772 626 417.772C612 417.772 598 417.772 584.2 417.772C570.3 417.772 556.7 417.772 542.8 417.772C529 417.772 515 417.772 501 417.772C487 417.772 473 417.772 459 417.772C445 417.772 431 417.772 417.2 417.772C403.3 417.772 389.7 417.772 375.8 417.772C362 417.772 348 417.772 334 417.772C320 417.772 306 417.772 292 417.772C278 417.772 264 417.772 250.2 417.772C236.3 417.772 222.7 417.772 208.8 417.772C195 417.772 181 417.772 167 417.772C153 417.772 139 417.772 125 417.772C111 417.772 97 417.772 83.2 417.772C69.3 417.772 55.7 417.772 41.8 417.772C28 417.772 14 417.772 7 417.772H0V291.128Z" fill="#4A83B4"/>
<path d="M0 303.483L7 303.097C14 302.711 28 301.939 41.8 300.781C55.7 299.622 69.3 298.078 83.2 295.607C97 293.213 111 289.815 125 290.356C139 290.896 153 295.221 167 298.232C181 301.167 195 302.711 208.8 301.167C222.7 299.622 236.3 294.989 250.2 293.985C264 292.904 278 295.529 292 296.302C306 297.074 320 295.993 334 296.302C348 296.533 362 298.078 375.8 297.074C389.7 295.993 403.3 292.441 417.2 290.201C431 288.039 445 287.267 459 287.112C473 287.035 487 287.498 501 290.124C515 292.672 529 297.306 542.8 297.692C556.7 298.078 570.3 294.217 584.2 294.603C598 294.989 612 299.622 626 302.171C640 304.796 654 305.259 668 302.171C682 299.082 696 292.441 709.8 291.668C723.7 290.896 737.3 295.993 751.2 299.082C765 302.171 779 303.252 793 302.557C807 301.939 821 299.622 835 297.537C849 295.529 863 293.676 876.8 292.827C890.7 291.9 904.3 291.9 918.2 294.062C932 296.302 946 300.626 953 302.866L960 305.028V417.772H953C946 417.772 932 417.772 918.2 417.772C904.3 417.772 890.7 417.772 876.8 417.772C863 417.772 849 417.772 835 417.772C821 417.772 807 417.772 793 417.772C779 417.772 765 417.772 751.2 417.772C737.3 417.772 723.7 417.772 709.8 417.772C696 417.772 682 417.772 668 417.772C654 417.772 640 417.772 626 417.772C612 417.772 598 417.772 584.2 417.772C570.3 417.772 556.7 417.772 542.8 417.772C529 417.772 515 417.772 501 417.772C487 417.772 473 417.772 459 417.772C445 417.772 431 417.772 417.2 417.772C403.3 417.772 389.7 417.772 375.8 417.772C362 417.772 348 417.772 334 417.772C320 417.772 306 417.772 292 417.772C278 417.772 264 417.772 250.2 417.772C236.3 417.772 222.7 417.772 208.8 417.772C195 417.772 181 417.772 167 417.772C153 417.772 139 417.772 125 417.772C111 417.772 97 417.772 83.2 417.772C69.3 417.772 55.7 417.772 41.8 417.772C28 417.772 14 417.772 7 417.772H0V303.483Z" fill="#4078AB"/>
<path d="M0 307.344L7 307.576C14 307.885 28 308.348 41.8 308.503C55.7 308.657 69.3 308.348 83.2 307.962C97 307.576 111 307.113 125 307.731C139 308.348 153 310.202 167 311.437C181 312.75 195 313.522 208.8 313.677C222.7 313.754 236.3 313.291 250.2 312.518C264 311.746 278 310.665 292 310.974C306 311.206 320 312.75 334 313.908C348 315.067 362 315.839 375.8 315.684C389.7 315.607 403.3 314.526 417.2 314.063C431 313.522 445 313.522 459 311.592C473 309.661 487 305.8 501 304.024C515 302.171 529 302.479 542.8 305.182C556.7 307.885 570.3 312.982 584.2 314.526C598 316.071 612 314.063 626 313.368C640 312.75 654 313.522 668 312.209C682 310.974 696 307.576 709.8 305.8C723.7 304.024 737.3 303.715 751.2 304.101C765 304.487 779 305.568 793 307.499C807 309.429 821 312.209 835 311.592C849 310.974 863 306.804 876.8 305.182C890.7 303.483 904.3 304.256 918.2 304.41C932 304.487 946 304.024 953 303.715L960 303.483V417.772H953C946 417.772 932 417.772 918.2 417.772C904.3 417.772 890.7 417.772 876.8 417.772C863 417.772 849 417.772 835 417.772C821 417.772 807 417.772 793 417.772C779 417.772 765 417.772 751.2 417.772C737.3 417.772 723.7 417.772 709.8 417.772C696 417.772 682 417.772 668 417.772C654 417.772 640 417.772 626 417.772C612 417.772 598 417.772 584.2 417.772C570.3 417.772 556.7 417.772 542.8 417.772C529 417.772 515 417.772 501 417.772C487 417.772 473 417.772 459 417.772C445 417.772 431 417.772 417.2 417.772C403.3 417.772 389.7 417.772 375.8 417.772C362 417.772 348 417.772 334 417.772C320 417.772 306 417.772 292 417.772C278 417.772 264 417.772 250.2 417.772C236.3 417.772 222.7 417.772 208.8 417.772C195 417.772 181 417.772 167 417.772C153 417.772 139 417.772 125 417.772C111 417.772 97 417.772 83.2 417.772C69.3 417.772 55.7 417.772 41.8 417.772C28 417.772 14 417.772 7 417.772H0V307.344Z" fill="#376DA2"/>
<path d="M0 318.928L7 318.696C14 318.387 28 317.924 41.8 318.001C55.7 318.156 69.3 318.928 83.2 320.627C97 322.248 111 324.874 125 325.106C139 325.337 153 323.329 167 323.329C181 323.329 195 325.337 208.8 326.418C222.7 327.422 236.3 327.422 250.2 327.654C264 327.963 278 328.426 292 326.882C306 325.337 320 321.785 334 319.932C348 318.156 362 318.156 375.8 318.156C389.7 318.156 403.3 318.156 417.2 320.472C431 322.789 445 327.422 459 329.121C473 330.743 487 329.507 501 327.963C515 326.418 529 324.565 542.8 324.719C556.7 324.874 570.3 326.882 584.2 327.808C598 328.735 612 328.426 626 326.882C640 325.337 654 322.557 668 323.175C682 323.793 696 327.963 709.8 329.507C723.7 331.052 737.3 329.971 751.2 328.04C765 326.109 779 323.329 793 321.244C807 319.159 821 317.924 835 317.383C849 316.843 863 317.152 876.8 319.546C890.7 322.017 904.3 326.65 918.2 327.577C932 328.426 946 325.646 953 324.179L960 322.789V417.772H953C946 417.772 932 417.772 918.2 417.772C904.3 417.772 890.7 417.772 876.8 417.772C863 417.772 849 417.772 835 417.772C821 417.772 807 417.772 793 417.772C779 417.772 765 417.772 751.2 417.772C737.3 417.772 723.7 417.772 709.8 417.772C696 417.772 682 417.772 668 417.772C654 417.772 640 417.772 626 417.772C612 417.772 598 417.772 584.2 417.772C570.3 417.772 556.7 417.772 542.8 417.772C529 417.772 515 417.772 501 417.772C487 417.772 473 417.772 459 417.772C445 417.772 431 417.772 417.2 417.772C403.3 417.772 389.7 417.772 375.8 417.772C362 417.772 348 417.772 334 417.772C320 417.772 306 417.772 292 417.772C278 417.772 264 417.772 250.2 417.772C236.3 417.772 222.7 417.772 208.8 417.772C195 417.772 181 417.772 167 417.772C153 417.772 139 417.772 125 417.772C111 417.772 97 417.772 83.2 417.772C69.3 417.772 55.7 417.772 41.8 417.772C28 417.772 14 417.772 7 417.772H0V318.928Z" fill="#2D6399"/>
<path d="M0 346.728L7 345.801C14 344.952 28 343.098 41.8 342.326C55.7 341.554 69.3 341.863 83.2 341.091C97 340.318 111 338.465 125 338.388C139 338.233 153 339.778 167 341.091C181 342.326 195 343.407 208.8 342.712C222.7 342.094 236.3 339.778 250.2 339.16C264 338.465 278 339.546 292 340.705C306 341.863 320 343.098 334 342.635C348 342.095 362 339.778 375.8 339.932C389.7 340.01 403.3 342.635 417.2 343.793C431 344.952 445 344.643 459 343.253C473 341.863 487 339.237 501 339.392C515 339.546 529 342.326 542.8 341.708C556.7 341.091 570.3 336.921 584.2 335.917C598 334.913 612 336.921 626 337.847C640 338.774 654 338.465 668 339.546C682 340.55 696 342.867 709.8 343.021C723.7 343.098 737.3 341.091 751.2 340.318C765 339.546 779 340.009 793 339.623C807 339.237 821 338.002 835 338.233C849 338.465 863 340.318 876.8 339.932C890.7 339.546 904.3 336.921 918.2 337.461C932 338.002 946 341.554 953 343.407L960 345.183V417.772H953C946 417.772 932 417.772 918.2 417.772C904.3 417.772 890.7 417.772 876.8 417.772C863 417.772 849 417.772 835 417.772C821 417.772 807 417.772 793 417.772C779 417.772 765 417.772 751.2 417.772C737.3 417.772 723.7 417.772 709.8 417.772C696 417.772 682 417.772 668 417.772C654 417.772 640 417.772 626 417.772C612 417.772 598 417.772 584.2 417.772C570.3 417.772 556.7 417.772 542.8 417.772C529 417.772 515 417.772 501 417.772C487 417.772 473 417.772 459 417.772C445 417.772 431 417.772 417.2 417.772C403.3 417.772 389.7 417.772 375.8 417.772C362 417.772 348 417.772 334 417.772C320 417.772 306 417.772 292 417.772C278 417.772 264 417.772 250.2 417.772C236.3 417.772 222.7 417.772 208.8 417.772C195 417.772 181 417.772 167 417.772C153 417.772 139 417.772 125 417.772C111 417.772 97 417.772 83.2 417.772C69.3 417.772 55.7 417.772 41.8 417.772C28 417.772 14 417.772 7 417.772H0V346.728Z" fill="#255890"/>
<path d="M0 358.311L7 357.693C14 356.998 28 355.763 41.8 355.454C55.7 355.222 69.3 355.994 83.2 356.535C97 356.998 111 357.307 125 356.767C139 356.226 153 354.991 167 354.218C181 353.446 195 353.137 208.8 353.523C222.7 353.909 236.3 354.99 250.2 354.295C264 353.678 278 351.361 292 351.593C306 351.902 320 354.682 334 354.45C348 354.218 362 350.82 375.8 350.589C389.7 350.357 403.3 353.137 417.2 353.909C431 354.682 445 353.446 459 352.288C473 351.129 487 350.048 501 349.662C515 349.276 529 349.585 542.8 350.434C556.7 351.361 570.3 352.905 584.2 353.292C598 353.678 612 352.905 626 351.979C640 351.129 654 350.048 668 350.589C682 351.129 696 353.137 709.8 353.523C723.7 353.909 737.3 352.674 751.2 352.674C765 352.674 779 353.909 793 354.45C807 354.99 821 354.682 835 354.45C849 354.218 863 353.909 876.8 353.137C890.7 352.365 904.3 351.129 918.2 351.516C932 351.902 946 353.909 953 354.991L960 355.994V417.772H953C946 417.772 932 417.772 918.2 417.772C904.3 417.772 890.7 417.772 876.8 417.772C863 417.772 849 417.772 835 417.772C821 417.772 807 417.772 793 417.772C779 417.772 765 417.772 751.2 417.772C737.3 417.772 723.7 417.772 709.8 417.772C696 417.772 682 417.772 668 417.772C654 417.772 640 417.772 626 417.772C612 417.772 598 417.772 584.2 417.772C570.3 417.772 556.7 417.772 542.8 417.772C529 417.772 515 417.772 501 417.772C487 417.772 473 417.772 459 417.772C445 417.772 431 417.772 417.2 417.772C403.3 417.772 389.7 417.772 375.8 417.772C362 417.772 348 417.772 334 417.772C320 417.772 306 417.772 292 417.772C278 417.772 264 417.772 250.2 417.772C236.3 417.772 222.7 417.772 208.8 417.772C195 417.772 181 417.772 167 417.772C153 417.772 139 417.772 125 417.772C111 417.772 97 417.772 83.2 417.772C69.3 417.772 55.7 417.772 41.8 417.772C28 417.772 14 417.772 7 417.772H0V358.311Z" fill="#1C4D87"/>
<path d="M0 367.578L7 367.037C14 366.574 28 365.493 41.8 365.879C55.7 366.265 69.3 368.118 83.2 369.277C97 370.435 111 370.898 125 369.74C139 368.582 153 365.802 167 364.489C181 363.176 195 363.485 208.8 363.948C222.7 364.489 236.3 365.261 250.2 365.493C264 365.802 278 365.493 292 366.188C306 366.806 320 368.35 334 369.277C348 370.126 362 370.435 375.8 370.512C389.7 370.667 403.3 370.667 417.2 370.435C431 370.126 445 369.663 459 368.891C473 368.118 487 367.037 501 366.96C515 366.806 529 367.578 542.8 367.809C556.7 368.118 570.3 367.809 584.2 367.423C598 367.037 612 366.574 626 365.879C640 365.261 654 364.489 668 364.103C682 363.717 696 363.717 709.8 363.562C723.7 363.485 737.3 363.176 751.2 364.489C765 365.802 779 368.582 793 370.281C807 371.979 821 372.443 835 372.057C849 371.671 863 370.435 876.8 369.354C890.7 368.35 904.3 367.578 918.2 368.35C932 369.122 946 371.439 953 372.597L960 373.756V417.772H953C946 417.772 932 417.772 918.2 417.772C904.3 417.772 890.7 417.772 876.8 417.772C863 417.772 849 417.772 835 417.772C821 417.772 807 417.772 793 417.772C779 417.772 765 417.772 751.2 417.772C737.3 417.772 723.7 417.772 709.8 417.772C696 417.772 682 417.772 668 417.772C654 417.772 640 417.772 626 417.772C612 417.772 598 417.772 584.2 417.772C570.3 417.772 556.7 417.772 542.8 417.772C529 417.772 515 417.772 501 417.772C487 417.772 473 417.772 459 417.772C445 417.772 431 417.772 417.2 417.772C403.3 417.772 389.7 417.772 375.8 417.772C362 417.772 348 417.772 334 417.772C320 417.772 306 417.772 292 417.772C278 417.772 264 417.772 250.2 417.772C236.3 417.772 222.7 417.772 208.8 417.772C195 417.772 181 417.772 167 417.772C153 417.772 139 417.772 125 417.772C111 417.772 97 417.772 83.2 417.772C69.3 417.772 55.7 417.772 41.8 417.772C28 417.772 14 417.772 7 417.772H0V367.578Z" fill="#13437E"/>
<path d="M0 379.161L7 380.319C14 381.478 28 383.794 41.8 383.949C55.7 384.026 69.3 382.018 83.2 381.864C97 381.709 111 383.563 125 384.567C139 385.571 153 385.879 167 385.184C181 384.567 195 383.022 208.8 383.022C222.7 383.022 236.3 384.567 250.2 384.181C264 383.794 278 381.478 292 380.088C306 378.621 320 378.157 334 378.621C348 379.161 362 380.706 375.8 381.246C389.7 381.709 403.3 381.246 417.2 381.709C431 382.25 445 383.794 459 384.567C473 385.339 487 385.339 501 385.493C515 385.571 529 385.879 542.8 385.493C556.7 385.107 570.3 384.026 584.2 383.177C598 382.25 612 381.478 626 381.709C640 382.018 654 383.254 668 383.794C682 384.335 696 384.026 709.8 384.412C723.7 384.798 737.3 385.879 751.2 386.111C765 386.343 779 385.879 793 384.335C807 382.791 821 380.165 835 379.007C849 377.848 863 378.157 876.8 379.393C890.7 380.706 904.3 383.022 918.2 384.181C932 385.339 946 385.339 953 385.339H960V417.772H953C946 417.772 932 417.772 918.2 417.772C904.3 417.772 890.7 417.772 876.8 417.772C863 417.772 849 417.772 835 417.772C821 417.772 807 417.772 793 417.772C779 417.772 765 417.772 751.2 417.772C737.3 417.772 723.7 417.772 709.8 417.772C696 417.772 682 417.772 668 417.772C654 417.772 640 417.772 626 417.772C612 417.772 598 417.772 584.2 417.772C570.3 417.772 556.7 417.772 542.8 417.772C529 417.772 515 417.772 501 417.772C487 417.772 473 417.772 459 417.772C445 417.772 431 417.772 417.2 417.772C403.3 417.772 389.7 417.772 375.8 417.772C362 417.772 348 417.772 334 417.772C320 417.772 306 417.772 292 417.772C278 417.772 264 417.772 250.2 417.772C236.3 417.772 222.7 417.772 208.8 417.772C195 417.772 181 417.772 167 417.772C153 417.772 139 417.772 125 417.772C111 417.772 97 417.772 83.2 417.772C69.3 417.772 55.7 417.772 41.8 417.772C28 417.772 14 417.772 7 417.772H0V379.161Z" fill="#093975"/>
<path d="M0 398.467L7 397.54C14 396.691 28 394.837 41.8 394.219C55.7 393.602 69.3 394.065 83.2 395.378C97 396.691 111 398.698 125 399.239C139 399.779 153 398.698 167 398.081C181 397.463 195 397.154 208.8 397.463C222.7 397.694 236.3 398.467 250.2 398.698C264 399.007 278 398.698 292 398.312C306 397.926 320 397.463 334 397.694C348 397.926 362 399.007 375.8 398.853C389.7 398.698 403.3 397.463 417.2 396.922C431 396.382 445 396.691 459 396.382C473 396.15 487 395.378 501 395.532C515 395.609 529 396.691 542.8 397.077C556.7 397.463 570.3 397.154 584.2 397.308C598 397.463 612 397.926 626 397.849C640 397.694 654 396.922 668 396.536C682 396.15 696 396.15 709.8 396.304C723.7 396.382 737.3 396.691 751.2 397.308C765 397.926 779 399.007 793 399.007C807 399.007 821 397.926 835 397.154C849 396.382 863 395.918 876.8 396.382C890.7 396.922 904.3 398.467 918.2 399.007C932 399.471 946 399.007 953 398.698L960 398.467V417.772H953C946 417.772 932 417.772 918.2 417.772C904.3 417.772 890.7 417.772 876.8 417.772C863 417.772 849 417.772 835 417.772C821 417.772 807 417.772 793 417.772C779 417.772 765 417.772 751.2 417.772C737.3 417.772 723.7 417.772 709.8 417.772C696 417.772 682 417.772 668 417.772C654 417.772 640 417.772 626 417.772C612 417.772 598 417.772 584.2 417.772C570.3 417.772 556.7 417.772 542.8 417.772C529 417.772 515 417.772 501 417.772C487 417.772 473 417.772 459 417.772C445 417.772 431 417.772 417.2 417.772C403.3 417.772 389.7 417.772 375.8 417.772C362 417.772 348 417.772 334 417.772C320 417.772 306 417.772 292 417.772C278 417.772 264 417.772 250.2 417.772C236.3 417.772 222.7 417.772 208.8 417.772C195 417.772 181 417.772 167 417.772C153 417.772 139 417.772 125 417.772C111 417.772 97 417.772 83.2 417.772C69.3 417.772 55.7 417.772 41.8 417.772C28 417.772 14 417.772 7 417.772H0V398.467Z" fill="#002F6B"/>
</g>
<defs>
<clipPath id="clip0_4_15">
<rect width="960" height="417" fill="white"/>
</clipPath>
</defs>
</svg>
