<svg width="40" height="40" viewBox="0 0 40 40" fill="none" xmlns="http://www.w3.org/2000/svg">
<path fill-rule="evenodd" clip-rule="evenodd" d="M38.1959 1.47595C36.1835 -0.491976 32.9209 -0.491992 30.9085 1.47595L28.0231 4.29757L14.443 17.5775C14.2229 17.7928 14.0667 18.0626 13.9912 18.3579L12.2736 25.0768C12.1272 25.6493 12.2987 26.2548 12.7254 26.6719C13.152 27.0891 13.7712 27.257 14.3566 27.1138L21.2272 25.4341C21.5294 25.3602 21.8051 25.2075 22.0253 24.9922L35.5065 11.8089L38.4907 8.89066C40.5031 6.92273 40.5031 3.73207 38.4907 1.76414L38.1959 1.47595ZM33.3376 3.85145C34.0084 3.19548 35.096 3.19548 35.7668 3.85145L36.0615 4.13964C36.7323 4.79563 36.7323 5.85919 36.0615 6.51516L34.3155 8.22264L31.6438 5.50787L33.3376 3.85145ZM29.2141 7.88381L31.8858 10.5986L19.9326 22.2878L16.3007 23.1757L17.2086 19.6241L29.2141 7.88381ZM4.44444 11.1314C4.44444 9.97617 5.48024 8.9107 6.66667 8.9107H16.1111C17.2222 8.35554 17.7778 7.84524 17.7778 6.69004C17.7778 5.53484 17.2222 5.02454 16.1111 4.46937L6.4447 4.44133C3.33333 4.46937 0 7.25078 0 10.7164V33.338C0 36.8037 2.87008 40 6.42938 40H28.8889C32.4483 40 35.5556 37.2242 35.5556 33.338V24.4554C35.5556 23.3003 34.5198 22.2347 33.3333 22.2347C32.1469 22.2347 31.1111 23.3003 31.1111 24.4554V33.338C31.1111 34.4932 30.0754 35.5587 28.8889 35.5587H6.66667C5.48024 35.5587 4.44444 34.4932 4.44444 33.338V11.1314Z" fill="#D9D9D9"/>
</svg>
