<svg id="visual" viewBox="0 0 960 540" width="960" height="540" xmlns="http://www.w3.org/2000/svg" xmlns:xlink="http://www.w3.org/1999/xlink" version="1.1"><path d="M0 301L7 303.2C14 305.3 28 309.7 41.8 308C55.7 306.3 69.3 298.7 83.2 295.8C97 293 111 295 125 296.3C139 297.7 153 298.3 167 299.3C181 300.3 195 301.7 208.8 305.7C222.7 309.7 236.3 316.3 250.2 319.2C264 322 278 321 292 316.7C306 312.3 320 304.7 334 301.5C348 298.3 362 299.7 375.8 303.8C389.7 308 403.3 315 417.2 315.7C431 316.3 445 310.7 459 308C473 305.3 487 305.7 501 308.3C515 311 529 316 542.8 314.5C556.7 313 570.3 305 584.2 302C598 299 612 301 626 302.7C640 304.3 654 305.7 668 309.3C682 313 696 319 709.8 319.5C723.7 320 737.3 315 751.2 313.7C765 312.3 779 314.7 793 312.5C807 310.3 821 303.7 835 302C849 300.3 863 303.7 876.8 303.3C890.7 303 904.3 299 918.2 298.3C932 297.7 946 300.3 953 301.7L960 303L960 541L953 541C946 541 932 541 918.2 541C904.3 541 890.7 541 876.8 541C863 541 849 541 835 541C821 541 807 541 793 541C779 541 765 541 751.2 541C737.3 541 723.7 541 709.8 541C696 541 682 541 668 541C654 541 640 541 626 541C612 541 598 541 584.2 541C570.3 541 556.7 541 542.8 541C529 541 515 541 501 541C487 541 473 541 459 541C445 541 431 541 417.2 541C403.3 541 389.7 541 375.8 541C362 541 348 541 334 541C320 541 306 541 292 541C278 541 264 541 250.2 541C236.3 541 222.7 541 208.8 541C195 541 181 541 167 541C153 541 139 541 125 541C111 541 97 541 83.2 541C69.3 541 55.7 541 41.8 541C28 541 14 541 7 541L0 541Z" fill="#6aa5ce"></path><path d="M0 326L7 328.2C14 330.3 28 334.7 41.8 332.8C55.7 331 69.3 323 83.2 320C97 317 111 319 125 322C139 325 153 329 167 331C181 333 195 333 208.8 332C222.7 331 236.3 329 250.2 326C264 323 278 319 292 318.5C306 318 320 321 334 323C348 325 362 326 375.8 327.7C389.7 329.3 403.3 331.7 417.2 332.3C431 333 445 332 459 333.2C473 334.3 487 337.7 501 334.3C515 331 529 321 542.8 318.8C556.7 316.7 570.3 322.3 584.2 327.8C598 333.3 612 338.7 626 336.2C640 333.7 654 323.3 668 321.8C682 320.3 696 327.7 709.8 329C723.7 330.3 737.3 325.7 751.2 327C765 328.3 779 335.7 793 339C807 342.3 821 341.7 835 336.2C849 330.7 863 320.3 876.8 318.7C890.7 317 904.3 324 918.2 329.7C932 335.3 946 339.7 953 341.8L960 344L960 541L953 541C946 541 932 541 918.2 541C904.3 541 890.7 541 876.8 541C863 541 849 541 835 541C821 541 807 541 793 541C779 541 765 541 751.2 541C737.3 541 723.7 541 709.8 541C696 541 682 541 668 541C654 541 640 541 626 541C612 541 598 541 584.2 541C570.3 541 556.7 541 542.8 541C529 541 515 541 501 541C487 541 473 541 459 541C445 541 431 541 417.2 541C403.3 541 389.7 541 375.8 541C362 541 348 541 334 541C320 541 306 541 292 541C278 541 264 541 250.2 541C236.3 541 222.7 541 208.8 541C195 541 181 541 167 541C153 541 139 541 125 541C111 541 97 541 83.2 541C69.3 541 55.7 541 41.8 541C28 541 14 541 7 541L0 541Z" fill="#5f9ac5"></path><path d="M0 345L7 342.5C14 340 28 335 41.8 333.3C55.7 331.7 69.3 333.3 83.2 338.3C97 343.3 111 351.7 125 355.2C139 358.7 153 357.3 167 355.2C181 353 195 350 208.8 347.3C222.7 344.7 236.3 342.3 250.2 342.7C264 343 278 346 292 348.8C306 351.7 320 354.3 334 351.3C348 348.3 362 339.7 375.8 336.7C389.7 333.7 403.3 336.3 417.2 337.5C431 338.7 445 338.3 459 341.3C473 344.3 487 350.7 501 354C515 357.3 529 357.7 542.8 357.2C556.7 356.7 570.3 355.3 584.2 352.2C598 349 612 344 626 343.5C640 343 654 347 668 348C682 349 696 347 709.8 346C723.7 345 737.3 345 751.2 342.8C765 340.7 779 336.3 793 335.2C807 334 821 336 835 340C849 344 863 350 876.8 351C890.7 352 904.3 348 918.2 346.2C932 344.3 946 344.7 953 344.8L960 345L960 541L953 541C946 541 932 541 918.2 541C904.3 541 890.7 541 876.8 541C863 541 849 541 835 541C821 541 807 541 793 541C779 541 765 541 751.2 541C737.3 541 723.7 541 709.8 541C696 541 682 541 668 541C654 541 640 541 626 541C612 541 598 541 584.2 541C570.3 541 556.7 541 542.8 541C529 541 515 541 501 541C487 541 473 541 459 541C445 541 431 541 417.2 541C403.3 541 389.7 541 375.8 541C362 541 348 541 334 541C320 541 306 541 292 541C278 541 264 541 250.2 541C236.3 541 222.7 541 208.8 541C195 541 181 541 167 541C153 541 139 541 125 541C111 541 97 541 83.2 541C69.3 541 55.7 541 41.8 541C28 541 14 541 7 541L0 541Z" fill="#548ebd"></path><path d="M0 377L7 376.8C14 376.7 28 376.3 41.8 375.8C55.7 375.3 69.3 374.7 83.2 373.3C97 372 111 370 125 370.8C139 371.7 153 375.3 167 373C181 370.7 195 362.3 208.8 360.7C222.7 359 236.3 364 250.2 366.5C264 369 278 369 292 368C306 367 320 365 334 364.5C348 364 362 365 375.8 366.8C389.7 368.7 403.3 371.3 417.2 371.7C431 372 445 370 459 367.5C473 365 487 362 501 363.2C515 364.3 529 369.7 542.8 369.7C556.7 369.7 570.3 364.3 584.2 364.5C598 364.7 612 370.3 626 373.7C640 377 654 378 668 377.7C682 377.3 696 375.7 709.8 374.5C723.7 373.3 737.3 372.7 751.2 372.7C765 372.7 779 373.3 793 369.7C807 366 821 358 835 357.2C849 356.3 863 362.7 876.8 366C890.7 369.3 904.3 369.7 918.2 368C932 366.3 946 362.7 953 360.8L960 359L960 541L953 541C946 541 932 541 918.2 541C904.3 541 890.7 541 876.8 541C863 541 849 541 835 541C821 541 807 541 793 541C779 541 765 541 751.2 541C737.3 541 723.7 541 709.8 541C696 541 682 541 668 541C654 541 640 541 626 541C612 541 598 541 584.2 541C570.3 541 556.7 541 542.8 541C529 541 515 541 501 541C487 541 473 541 459 541C445 541 431 541 417.2 541C403.3 541 389.7 541 375.8 541C362 541 348 541 334 541C320 541 306 541 292 541C278 541 264 541 250.2 541C236.3 541 222.7 541 208.8 541C195 541 181 541 167 541C153 541 139 541 125 541C111 541 97 541 83.2 541C69.3 541 55.7 541 41.8 541C28 541 14 541 7 541L0 541Z" fill="#4a83b4"></path><path d="M0 393L7 392.5C14 392 28 391 41.8 389.5C55.7 388 69.3 386 83.2 382.8C97 379.7 111 375.3 125 376C139 376.7 153 382.3 167 386.2C181 390 195 392 208.8 390C222.7 388 236.3 382 250.2 380.7C264 379.3 278 382.7 292 383.7C306 384.7 320 383.3 334 383.7C348 384 362 386 375.8 384.7C389.7 383.3 403.3 378.7 417.2 375.8C431 373 445 372 459 371.8C473 371.7 487 372.3 501 375.7C515 379 529 385 542.8 385.5C556.7 386 570.3 381 584.2 381.5C598 382 612 388 626 391.3C640 394.7 654 395.3 668 391.3C682 387.3 696 378.7 709.8 377.7C723.7 376.7 737.3 383.3 751.2 387.3C765 391.3 779 392.7 793 391.8C807 391 821 388 835 385.3C849 382.7 863 380.3 876.8 379.2C890.7 378 904.3 378 918.2 380.8C932 383.7 946 389.3 953 392.2L960 395L960 541L953 541C946 541 932 541 918.2 541C904.3 541 890.7 541 876.8 541C863 541 849 541 835 541C821 541 807 541 793 541C779 541 765 541 751.2 541C737.3 541 723.7 541 709.8 541C696 541 682 541 668 541C654 541 640 541 626 541C612 541 598 541 584.2 541C570.3 541 556.7 541 542.8 541C529 541 515 541 501 541C487 541 473 541 459 541C445 541 431 541 417.2 541C403.3 541 389.7 541 375.8 541C362 541 348 541 334 541C320 541 306 541 292 541C278 541 264 541 250.2 541C236.3 541 222.7 541 208.8 541C195 541 181 541 167 541C153 541 139 541 125 541C111 541 97 541 83.2 541C69.3 541 55.7 541 41.8 541C28 541 14 541 7 541L0 541Z" fill="#4078ab"></path><path d="M0 398L7 398.3C14 398.7 28 399.3 41.8 399.5C55.7 399.7 69.3 399.3 83.2 398.8C97 398.3 111 397.7 125 398.5C139 399.3 153 401.7 167 403.3C181 405 195 406 208.8 406.2C222.7 406.3 236.3 405.7 250.2 404.7C264 403.7 278 402.3 292 402.7C306 403 320 405 334 406.5C348 408 362 409 375.8 408.8C389.7 408.7 403.3 407.3 417.2 406.7C431 406 445 406 459 403.5C473 401 487 396 501 393.7C515 391.3 529 391.7 542.8 395.2C556.7 398.7 570.3 405.3 584.2 407.3C598 409.3 612 406.7 626 405.8C640 405 654 406 668 404.3C682 402.7 696 398.3 709.8 396C723.7 393.7 737.3 393.3 751.2 393.8C765 394.3 779 395.7 793 398.2C807 400.7 821 404.3 835 403.5C849 402.7 863 397.3 876.8 395.2C890.7 393 904.3 394 918.2 394.2C932 394.3 946 393.7 953 393.3L960 393L960 541L953 541C946 541 932 541 918.2 541C904.3 541 890.7 541 876.8 541C863 541 849 541 835 541C821 541 807 541 793 541C779 541 765 541 751.2 541C737.3 541 723.7 541 709.8 541C696 541 682 541 668 541C654 541 640 541 626 541C612 541 598 541 584.2 541C570.3 541 556.7 541 542.8 541C529 541 515 541 501 541C487 541 473 541 459 541C445 541 431 541 417.2 541C403.3 541 389.7 541 375.8 541C362 541 348 541 334 541C320 541 306 541 292 541C278 541 264 541 250.2 541C236.3 541 222.7 541 208.8 541C195 541 181 541 167 541C153 541 139 541 125 541C111 541 97 541 83.2 541C69.3 541 55.7 541 41.8 541C28 541 14 541 7 541L0 541Z" fill="#376da2"></path><path d="M0 413L7 412.7C14 412.3 28 411.7 41.8 411.8C55.7 412 69.3 413 83.2 415.2C97 417.3 111 420.7 125 421C139 421.3 153 418.7 167 418.7C181 418.7 195 421.3 208.8 422.7C222.7 424 236.3 424 250.2 424.3C264 424.7 278 425.3 292 423.3C306 421.3 320 416.7 334 414.3C348 412 362 412 375.8 412C389.7 412 403.3 412 417.2 415C431 418 445 424 459 426.2C473 428.3 487 426.7 501 424.7C515 422.7 529 420.3 542.8 420.5C556.7 420.7 570.3 423.3 584.2 424.5C598 425.7 612 425.3 626 423.3C640 421.3 654 417.7 668 418.5C682 419.3 696 424.7 709.8 426.7C723.7 428.7 737.3 427.3 751.2 424.8C765 422.3 779 418.7 793 416C807 413.3 821 411.7 835 411C849 410.3 863 410.7 876.8 413.8C890.7 417 904.3 423 918.2 424.2C932 425.3 946 421.7 953 419.8L960 418L960 541L953 541C946 541 932 541 918.2 541C904.3 541 890.7 541 876.8 541C863 541 849 541 835 541C821 541 807 541 793 541C779 541 765 541 751.2 541C737.3 541 723.7 541 709.8 541C696 541 682 541 668 541C654 541 640 541 626 541C612 541 598 541 584.2 541C570.3 541 556.7 541 542.8 541C529 541 515 541 501 541C487 541 473 541 459 541C445 541 431 541 417.2 541C403.3 541 389.7 541 375.8 541C362 541 348 541 334 541C320 541 306 541 292 541C278 541 264 541 250.2 541C236.3 541 222.7 541 208.8 541C195 541 181 541 167 541C153 541 139 541 125 541C111 541 97 541 83.2 541C69.3 541 55.7 541 41.8 541C28 541 14 541 7 541L0 541Z" fill="#2d6399"></path><path d="M0 449L7 447.8C14 446.7 28 444.3 41.8 443.3C55.7 442.3 69.3 442.7 83.2 441.7C97 440.7 111 438.3 125 438.2C139 438 153 440 167 441.7C181 443.3 195 444.7 208.8 443.8C222.7 443 236.3 440 250.2 439.2C264 438.3 278 439.7 292 441.2C306 442.7 320 444.3 334 443.7C348 443 362 440 375.8 440.2C389.7 440.3 403.3 443.7 417.2 445.2C431 446.7 445 446.3 459 444.5C473 442.7 487 439.3 501 439.5C515 439.7 529 443.3 542.8 442.5C556.7 441.7 570.3 436.3 584.2 435C598 433.7 612 436.3 626 437.5C640 438.7 654 438.3 668 439.7C682 441 696 444 709.8 444.2C723.7 444.3 737.3 441.7 751.2 440.7C765 439.7 779 440.3 793 439.8C807 439.3 821 437.7 835 438C849 438.3 863 440.7 876.8 440.2C890.7 439.7 904.3 436.3 918.2 437C932 437.7 946 442.3 953 444.7L960 447L960 541L953 541C946 541 932 541 918.2 541C904.3 541 890.7 541 876.8 541C863 541 849 541 835 541C821 541 807 541 793 541C779 541 765 541 751.2 541C737.3 541 723.7 541 709.8 541C696 541 682 541 668 541C654 541 640 541 626 541C612 541 598 541 584.2 541C570.3 541 556.7 541 542.8 541C529 541 515 541 501 541C487 541 473 541 459 541C445 541 431 541 417.2 541C403.3 541 389.7 541 375.8 541C362 541 348 541 334 541C320 541 306 541 292 541C278 541 264 541 250.2 541C236.3 541 222.7 541 208.8 541C195 541 181 541 167 541C153 541 139 541 125 541C111 541 97 541 83.2 541C69.3 541 55.7 541 41.8 541C28 541 14 541 7 541L0 541Z" fill="#255890"></path><path d="M0 464L7 463.2C14 462.3 28 460.7 41.8 460.3C55.7 460 69.3 461 83.2 461.7C97 462.3 111 462.7 125 462C139 461.3 153 459.7 167 458.7C181 457.7 195 457.3 208.8 457.8C222.7 458.3 236.3 459.7 250.2 458.8C264 458 278 455 292 455.3C306 455.7 320 459.3 334 459C348 458.7 362 454.3 375.8 454C389.7 453.7 403.3 457.3 417.2 458.3C431 459.3 445 457.7 459 456.2C473 454.7 487 453.3 501 452.8C515 452.3 529 452.7 542.8 453.8C556.7 455 570.3 457 584.2 457.5C598 458 612 457 626 455.8C640 454.7 654 453.3 668 454C682 454.7 696 457.3 709.8 457.8C723.7 458.3 737.3 456.7 751.2 456.7C765 456.7 779 458.3 793 459C807 459.7 821 459.3 835 459C849 458.7 863 458.3 876.8 457.3C890.7 456.3 904.3 454.7 918.2 455.2C932 455.7 946 458.3 953 459.7L960 461L960 541L953 541C946 541 932 541 918.2 541C904.3 541 890.7 541 876.8 541C863 541 849 541 835 541C821 541 807 541 793 541C779 541 765 541 751.2 541C737.3 541 723.7 541 709.8 541C696 541 682 541 668 541C654 541 640 541 626 541C612 541 598 541 584.2 541C570.3 541 556.7 541 542.8 541C529 541 515 541 501 541C487 541 473 541 459 541C445 541 431 541 417.2 541C403.3 541 389.7 541 375.8 541C362 541 348 541 334 541C320 541 306 541 292 541C278 541 264 541 250.2 541C236.3 541 222.7 541 208.8 541C195 541 181 541 167 541C153 541 139 541 125 541C111 541 97 541 83.2 541C69.3 541 55.7 541 41.8 541C28 541 14 541 7 541L0 541Z" fill="#1c4d87"></path><path d="M0 476L7 475.3C14 474.7 28 473.3 41.8 473.8C55.7 474.3 69.3 476.7 83.2 478.2C97 479.7 111 480.3 125 478.8C139 477.3 153 473.7 167 472C181 470.3 195 470.7 208.8 471.3C222.7 472 236.3 473 250.2 473.3C264 473.7 278 473.3 292 474.2C306 475 320 477 334 478.2C348 479.3 362 479.7 375.8 479.8C389.7 480 403.3 480 417.2 479.7C431 479.3 445 478.7 459 477.7C473 476.7 487 475.3 501 475.2C515 475 529 476 542.8 476.3C556.7 476.7 570.3 476.3 584.2 475.8C598 475.3 612 474.7 626 473.8C640 473 654 472 668 471.5C682 471 696 471 709.8 470.8C723.7 470.7 737.3 470.3 751.2 472C765 473.7 779 477.3 793 479.5C807 481.7 821 482.3 835 481.8C849 481.3 863 479.7 876.8 478.3C890.7 477 904.3 476 918.2 477C932 478 946 481 953 482.5L960 484L960 541L953 541C946 541 932 541 918.2 541C904.3 541 890.7 541 876.8 541C863 541 849 541 835 541C821 541 807 541 793 541C779 541 765 541 751.2 541C737.3 541 723.7 541 709.8 541C696 541 682 541 668 541C654 541 640 541 626 541C612 541 598 541 584.2 541C570.3 541 556.7 541 542.8 541C529 541 515 541 501 541C487 541 473 541 459 541C445 541 431 541 417.2 541C403.3 541 389.7 541 375.8 541C362 541 348 541 334 541C320 541 306 541 292 541C278 541 264 541 250.2 541C236.3 541 222.7 541 208.8 541C195 541 181 541 167 541C153 541 139 541 125 541C111 541 97 541 83.2 541C69.3 541 55.7 541 41.8 541C28 541 14 541 7 541L0 541Z" fill="#13437e"></path><path d="M0 491L7 492.5C14 494 28 497 41.8 497.2C55.7 497.3 69.3 494.7 83.2 494.5C97 494.3 111 496.7 125 498C139 499.3 153 499.7 167 498.8C181 498 195 496 208.8 496C222.7 496 236.3 498 250.2 497.5C264 497 278 494 292 492.2C306 490.3 320 489.7 334 490.3C348 491 362 493 375.8 493.7C389.7 494.3 403.3 493.7 417.2 494.3C431 495 445 497 459 498C473 499 487 499 501 499.2C515 499.3 529 499.7 542.8 499.2C556.7 498.7 570.3 497.3 584.2 496.2C598 495 612 494 626 494.3C640 494.7 654 496.3 668 497C682 497.7 696 497.3 709.8 497.8C723.7 498.3 737.3 499.7 751.2 500C765 500.3 779 499.7 793 497.7C807 495.7 821 492.3 835 490.8C849 489.3 863 489.7 876.8 491.3C890.7 493 904.3 496 918.2 497.5C932 499 946 499 953 499L960 499L960 541L953 541C946 541 932 541 918.2 541C904.3 541 890.7 541 876.8 541C863 541 849 541 835 541C821 541 807 541 793 541C779 541 765 541 751.2 541C737.3 541 723.7 541 709.8 541C696 541 682 541 668 541C654 541 640 541 626 541C612 541 598 541 584.2 541C570.3 541 556.7 541 542.8 541C529 541 515 541 501 541C487 541 473 541 459 541C445 541 431 541 417.2 541C403.3 541 389.7 541 375.8 541C362 541 348 541 334 541C320 541 306 541 292 541C278 541 264 541 250.2 541C236.3 541 222.7 541 208.8 541C195 541 181 541 167 541C153 541 139 541 125 541C111 541 97 541 83.2 541C69.3 541 55.7 541 41.8 541C28 541 14 541 7 541L0 541Z" fill="#093975"></path><path d="M0 516L7 514.8C14 513.7 28 511.3 41.8 510.5C55.7 509.7 69.3 510.3 83.2 512C97 513.7 111 516.3 125 517C139 517.7 153 516.3 167 515.5C181 514.7 195 514.3 208.8 514.7C222.7 515 236.3 516 250.2 516.3C264 516.7 278 516.3 292 515.8C306 515.3 320 514.7 334 515C348 515.3 362 516.7 375.8 516.5C389.7 516.3 403.3 514.7 417.2 514C431 513.3 445 513.7 459 513.3C473 513 487 512 501 512.2C515 512.3 529 513.7 542.8 514.2C556.7 514.7 570.3 514.3 584.2 514.5C598 514.7 612 515.3 626 515.2C640 515 654 514 668 513.5C682 513 696 513 709.8 513.2C723.7 513.3 737.3 513.7 751.2 514.5C765 515.3 779 516.7 793 516.7C807 516.7 821 515.3 835 514.3C849 513.3 863 512.7 876.8 513.3C890.7 514 904.3 516 918.2 516.7C932 517.3 946 516.7 953 516.3L960 516L960 541L953 541C946 541 932 541 918.2 541C904.3 541 890.7 541 876.8 541C863 541 849 541 835 541C821 541 807 541 793 541C779 541 765 541 751.2 541C737.3 541 723.7 541 709.8 541C696 541 682 541 668 541C654 541 640 541 626 541C612 541 598 541 584.2 541C570.3 541 556.7 541 542.8 541C529 541 515 541 501 541C487 541 473 541 459 541C445 541 431 541 417.2 541C403.3 541 389.7 541 375.8 541C362 541 348 541 334 541C320 541 306 541 292 541C278 541 264 541 250.2 541C236.3 541 222.7 541 208.8 541C195 541 181 541 167 541C153 541 139 541 125 541C111 541 97 541 83.2 541C69.3 541 55.7 541 41.8 541C28 541 14 541 7 541L0 541Z" fill="#002f6b"></path></svg>