<?xml version="1.0" encoding="iso-8859-1"?>
<!-- Uploaded to: SVG Repo, www.svgrepo.com, Generator: SVG Repo Mixer Tools -->
<svg version="1.1" id="Layer_1" xmlns="http://www.w3.org/2000/svg" xmlns:xlink="http://www.w3.org/1999/xlink" 
	 viewBox="0 0 509 509" xml:space="preserve">
<circle style="fill:#FBD303;" cx="254.5" cy="254.5" r="254.5"/>
<rect x="35.3" y="327" style="fill:#333842;" width="114.5" height="13.2"/>
<g>
	<rect x="59.5" y="317.7" style="fill:#646B79;" width="90.2" height="9.3"/>
	<rect x="188.8" y="316.5" style="fill:#646B79;" width="157.1" height="47.3"/>
</g>
<g>
	<polygon style="fill:#333842;" points="229.9,349.4 215.3,334 198.2,334 205,349.4 	"/>
	<rect x="229.9" y="336.9" style="fill:#333842;" width="19.9" height="4.8"/>
	<polygon style="fill:#333842;" points="314.6,356.8 304.8,361.6 298.4,353.1 267.3,353.1 236.3,353.1 229.9,361.6 220.1,356.8 
		205,356.8 198.2,372.9 217.3,372.9 229.9,379.8 240,374.1 267.3,374.1 294.7,374.1 304.8,379.8 317.4,372.9 336.5,372.9 
		329.7,356.8 	"/>
	<polygon style="fill:#333842;" points="329.7,349.4 336.5,334 319.4,334 304.8,349.4 	"/>
	<rect x="284.9" y="336.9" style="fill:#333842;" width="19.9" height="4.8"/>
	<polygon style="fill:#333842;" points="272.1,324.5 272.1,329.7 267.3,329.7 262.6,329.7 262.6,324.5 192.8,324.5 192.8,331.5 
		259.2,331.5 259.2,341.7 267.3,341.7 275.5,341.7 275.5,331.5 341.9,331.5 341.9,324.5 	"/>
</g>
<circle style="fill:#646B79;" cx="168.8" cy="353.1" r="41.9"/>
<circle style="fill:#4F5565;" cx="168.8" cy="353.1" r="35.4"/>
<circle style="fill:#393D47;" cx="168.8" cy="353.1" r="13.4"/>
<g>
	<path style="fill:#333842;" d="M149,346.3c2.1-6,6.9-10.8,12.9-12.9c1.8-0.6,3.1-2.3,3.1-4.2v-0.3c0-3-2.9-5.1-5.8-4.2
		c-8.9,3-15.9,10-18.9,18.9c-0.9,2.8,1.2,5.8,4.2,5.8h0.3C146.8,349.4,148.4,348.1,149,346.3z"/>
	<path style="fill:#333842;" d="M175.6,333.4c6,2.1,10.8,6.9,12.9,12.9c0.6,1.8,2.3,3.1,4.2,3.1h0.3c3,0,5.1-2.9,4.2-5.8
		c-3-8.9-10-15.9-18.9-18.9c-2.8-0.9-5.8,1.2-5.8,4.2v0.3C172.5,331.1,173.8,332.7,175.6,333.4z"/>
	<path style="fill:#333842;" d="M161.9,372.8c-6-2.1-10.8-6.9-12.9-12.9c-0.6-1.8-2.3-3.1-4.2-3.1h-0.3c-3,0-5.1,2.9-4.2,5.8
		c3,8.9,10,15.9,18.9,18.9c2.8,0.9,5.8-1.2,5.8-4.2V377C165,375.1,163.8,373.5,161.9,372.8z"/>
	<path style="fill:#333842;" d="M188.5,359.9c-2.1,6-6.9,10.8-12.9,12.9c-1.8,0.6-3.1,2.3-3.1,4.2v0.3c0,3,2.9,5.1,5.8,4.2
		c8.9-3,15.9-10,18.9-18.9c0.9-2.8-1.2-5.8-4.2-5.8h-0.3C190.8,356.8,189.1,358.1,188.5,359.9z"/>
</g>
<circle style="fill:#646B79;" cx="365.9" cy="353.1" r="41.9"/>
<circle style="fill:#4F5565;" cx="365.9" cy="353.1" r="35.4"/>
<circle style="fill:#393D47;" cx="365.9" cy="353.1" r="13.4"/>
<g>
	<path style="fill:#333842;" d="M346.2,346.3c2.1-6,6.9-10.8,12.9-12.9c1.8-0.6,3.1-2.3,3.1-4.2v-0.3c0-3-2.9-5.1-5.8-4.2
		c-8.9,3-15.9,10-18.9,18.9c-0.9,2.8,1.2,5.8,4.2,5.8h0.3C343.9,349.4,345.5,348.1,346.2,346.3z"/>
	<path style="fill:#333842;" d="M372.8,333.4c6,2.1,10.8,6.9,12.9,12.9c0.6,1.8,2.3,3.1,4.2,3.1h0.3c3,0,5.1-2.9,4.2-5.8
		c-3-8.9-10-15.9-18.9-18.9c-2.8-0.9-5.8,1.2-5.8,4.2v0.3C369.6,331.1,370.9,332.7,372.8,333.4z"/>
	<path style="fill:#333842;" d="M359.1,372.8c-6-2.1-10.8-6.9-12.9-12.9c-0.6-1.8-2.3-3.1-4.2-3.1h-0.3c-3,0-5.1,2.9-4.2,5.8
		c3,8.9,10,15.9,18.9,18.9c2.8,0.9,5.8-1.2,5.8-4.2V377C362.2,375.1,360.9,373.5,359.1,372.8z"/>
	<path style="fill:#333842;" d="M385.7,359.9c-2.1,6-6.9,10.8-12.9,12.9c-1.8,0.6-3.1,2.3-3.1,4.2v0.3c0,3,2.9,5.1,5.8,4.2
		c8.9-3,15.9-10,18.9-18.9c0.9-2.8-1.2-5.8-4.2-5.8h-0.3C387.9,356.8,386.3,358.1,385.7,359.9z"/>
</g>
<path style="fill:#DEDEDF;" d="M77.7,319.2h423c5.4-20.7,8.3-42.4,8.3-64.7c0-39-8.8-76-24.5-109H77.7V319.2z"/>
<path style="fill:#EFEFEF;" d="M77.7,145.5h406.8c-5.2-11-11.2-21.5-17.8-31.5H68.6L77.7,145.5z"/>
<g>
	<path style="fill:#F4F4F4;" d="M508.8,247.3H77.7v6.9H509C509,251.9,508.9,249.6,508.8,247.3z"/>
	<path style="fill:#F4F4F4;" d="M508.5,269.2H77.7v6.9H508C508.2,273.8,508.4,271.5,508.5,269.2z"/>
	<path style="fill:#F4F4F4;" d="M506.4,291H77.7v6.9h427.5C505.6,295.6,506,293.3,506.4,291z"/>
</g>
<rect x="201.4" y="145.5" style="fill:#BDBDBE;" width="131.8" height="173.7"/>
<path style="fill:#78879C;" d="M206.8,319.2V168.6c0-8,6.5-14.5,14.5-14.5h92c8,0,14.5,6.5,14.5,14.5v150.6H206.8z"/>
<path style="fill:#DEDEDF;" d="M313.4,157.8h-92c-6,0-10.8,4.8-10.8,10.8v146.9h113.6V168.6C324.2,162.6,319.3,157.8,313.4,157.8z"
	/>
<g>
	<rect x="264.6" y="157.8" style="fill:#78879C;" width="5.5" height="157.7"/>
	<path style="fill:#78879C;" d="M247.2,168.8h-18.7c-4.4,0-8,3.6-8,8v47.6c0,4.4,3.6,8,8,8h18.7c4.4,0,8-3.6,8-8v-47.6
		C255.2,172.4,251.6,168.8,247.2,168.8z"/>
</g>
<path style="fill:#C7D7F0;" d="M228.5,228.7c-2.4,0-4.3-1.9-4.3-4.3v-47.6c0-2.4,1.9-4.3,4.3-4.3h18.7c2.4,0,4.3,1.9,4.3,4.3v47.6
	c0,2.4-1.9,4.3-4.3,4.3H228.5z"/>
<path style="fill:#78879C;" d="M306.2,168.8h-18.7c-4.4,0-8,3.6-8,8v47.6c0,4.4,3.6,8,8,8h18.7c4.4,0,8-3.6,8-8v-47.6
	C314.2,172.4,310.6,168.8,306.2,168.8z"/>
<path style="fill:#C7D7F0;" d="M287.5,228.7c-2.4,0-4.3-1.9-4.3-4.3v-47.6c0-2.4,1.9-4.3,4.3-4.3h18.7c2.4,0,4.3,1.9,4.3,4.3v47.6
	c0,2.4-1.9,4.3-4.3,4.3H287.5z"/>
<path style="fill:#78879C;" d="M143.6,168.8h-18.7c-4.4,0-8,3.6-8,8v47.6c0,4.4,3.6,8,8,8h18.7c4.4,0,8-3.6,8-8v-47.6
	C151.6,172.4,148,168.8,143.6,168.8z"/>
<path style="fill:#C7D7F0;" d="M124.9,228.7c-2.4,0-4.3-1.9-4.3-4.3v-47.6c0-2.4,1.9-4.3,4.3-4.3h18.7c2.4,0,4.3,1.9,4.3,4.3v47.6
	c0,2.4-1.9,4.3-4.3,4.3H124.9z"/>
<g>
	<rect x="118.8" y="185.8" style="fill:#78879C;" width="30.9" height="3.4"/>
	<path style="fill:#78879C;" d="M470.1,168.8h-90.9c-4.4,0-8,3.6-8,8v47.6c0,4.4,3.6,8,8,8h90.9c4.4,0,8-3.6,8-8v-47.6
		C478.1,172.4,474.5,168.8,470.1,168.8z"/>
</g>
<path style="fill:#C7D7F0;" d="M379.2,228.7c-2.4,0-4.3-1.9-4.3-4.3v-47.6c0-2.4,1.9-4.3,4.3-4.3h90.9c2.4,0,4.3,1.9,4.3,4.3v47.6
	c0,2.4-1.9,4.3-4.3,4.3H379.2z"/>
<rect x="373.2" y="185.8" style="fill:#78879C;" width="103" height="3.4"/>
<path style="fill:#CCCCCE;" d="M77.7,319.2V142.4c0-15.7-4.1-28.5-9.1-28.5s-9.1,12.8-9.1,28.5v176.8H77.7z"/>
<g>
	<rect x="44.6" y="291" style="fill:#646B79;" width="26.7" height="12.9"/>
	<rect x="41.1" y="276.1" style="fill:#646B79;" width="8.9" height="42.8"/>
</g>
<polygon style="fill:#333842;" points="63.1,355.9 35.3,355.9 35.3,350.3 61.3,350.3 86.7,331.8 90,336.2 "/>
</svg>