<svg width="1320" height="675" viewBox="0 0 1320 675" fill="none" xmlns="http://www.w3.org/2000/svg">
<path fill-rule="evenodd" clip-rule="evenodd" d="M120 0H0V675H120H1320V0H120ZM558.6 52.5002C452.322 84.3186 391.14 144.387 341.7 235.95C308.25 297.9 329.4 384.6 342.3 417.3C358.218 457.649 391.05 523.8 443.7 562.05C499.061 602.269 535.205 620.306 600.9 639.45C696.547 667.323 771.709 660.677 855.3 645.3C945 628.8 1019.82 602.083 1069.65 543.75C1096.36 512.478 1100.74 488.013 1106.78 454.29C1107.9 448.06 1109.07 441.514 1110.45 434.55C1120.94 381.597 1117.11 349.568 1110.77 296.679V296.678L1110.77 296.677L1110.45 294C1109.7 287.706 1108.96 281.431 1108.23 275.183L1108.2 274.956C1096.83 177.712 1086.25 87.2989 1018.5 41.1001C976.174 12.2354 885.724 17.9888 794.721 23.7774L794.721 23.7775C780.264 24.697 765.794 25.6175 751.5 26.4001C742.983 26.8665 734.876 27.2792 727.091 27.6755C665.487 30.8116 623.987 32.9243 558.6 52.5002Z" fill="white"/>
</svg>
