<?xml version="1.0" standalone="no"?>
<!DOCTYPE svg PUBLIC "-//W3C//DTD SVG 20010904//EN"
 "http://www.w3.org/TR/2001/REC-SVG-20010904/DTD/svg10.dtd">
<svg version="1.0" xmlns="http://www.w3.org/2000/svg"
 width="480.000000pt" height="360.000000pt" viewBox="0 0 480.000000 360.000000"
 preserveAspectRatio="xMidYMid meet">

<g transform="translate(0.000000,360.000000) scale(0.100000,-0.100000)"
fill="#000000" stroke="none">
<path d="M2058 2814 c-3 -3 -33 -5 -66 -6 -55 -1 -61 -3 -67 -25 -3 -13 -19
-38 -36 -55 -16 -18 -27 -38 -25 -45 3 -7 -2 -32 -11 -56 -15 -42 -15 -46 4
-88 12 -24 24 -60 27 -80 l6 -35 -167 0 c-317 0 -545 -64 -676 -189 -32 -30
-56 -55 -53 -55 2 0 -4 -23 -15 -50 -22 -59 -24 -110 -4 -165 8 -22 15 -41 15
-42 0 -2 -13 -3 -29 -3 -22 0 -32 -6 -37 -22 -5 -18 1 -29 32 -56 22 -19 58
-43 80 -53 41 -19 42 -20 68 -116 l27 -98 -57 -103 c-49 -90 -59 -103 -78 -99
-11 3 -46 12 -76 21 -162 46 -358 -9 -471 -132 -84 -92 -119 -182 -119 -307 0
-193 125 -375 307 -446 87 -33 221 -38 311 -10 127 38 230 126 292 249 12 24
19 46 16 49 -3 3 -24 7 -48 10 -42 4 -43 4 -63 -39 -27 -59 -103 -131 -172
-164 -80 -38 -202 -45 -285 -15 -245 86 -343 360 -202 568 69 102 174 157 299
158 88 0 175 -20 175 -41 0 -7 -30 -67 -66 -133 -55 -102 -70 -121 -89 -121
-13 0 -27 -4 -30 -10 -4 -6 1 -7 12 -3 14 5 13 1 -6 -20 -46 -50 7 -120 63
-83 21 13 53 16 175 16 142 0 150 1 156 20 7 22 8 22 145 -6 111 -22 125 -26
141 -41 20 -17 33 -4 45 47 l8 35 7 -30 c5 -25 7 -26 8 -7 0 13 -3 31 -8 41
-8 14 32 62 215 261 124 135 228 246 233 248 8 3 46 -117 39 -122 -2 -1 -21
-13 -43 -27 -96 -57 -174 -156 -210 -267 -13 -41 -16 -78 -13 -155 3 -89 8
-111 34 -167 59 -124 173 -221 298 -255 49 -13 88 -17 158 -13 108 6 154 22
253 87 l70 46 90 -3 c112 -5 181 14 265 70 111 73 190 204 198 326 3 31 44 29
76 -3 29 -29 71 -33 104 -10 16 12 27 13 41 5 30 -16 121 -13 121 4 0 11 -23
16 -95 21 -53 4 -109 5 -126 1 -43 -8 -67 8 -71 47 -2 22 -10 35 -25 42 -15 6
-29 29 -42 67 -19 57 -16 73 12 62 8 -3 18 -1 22 5 12 21 23 11 34 -34 10 -39
15 -45 39 -46 15 0 59 -3 99 -7 72 -8 73 -7 99 23 61 69 271 303 306 340 20
21 40 36 44 33 3 -4 12 -24 19 -45 10 -27 14 -32 15 -15 0 12 3 22 8 22 4 0
13 4 20 9 11 7 6 32 -24 130 -20 66 -35 124 -32 127 3 3 24 -4 46 -15 22 -11
62 -29 90 -39 l51 -20 -10 26 c-21 55 11 108 73 122 l33 7 -40 12 c-22 6 -85
37 -140 69 -110 64 -101 50 -118 182 -5 40 -3 47 16 55 32 15 38 63 15 130
-23 66 -20 80 20 88 19 4 33 14 37 28 10 32 25 4 25 -47 0 -89 39 -132 93
-106 19 9 17 11 -20 11 -40 1 -43 3 -52 39 -18 62 -13 91 20 133 21 27 38 39
53 37 31 -3 146 23 146 34 0 18 -34 21 -84 7 -28 -7 -65 -12 -83 -11 -25 1
-30 -1 -26 -16 2 -10 -5 -29 -16 -43 -20 -24 -20 -24 -35 -4 -21 27 -16 57 11
71 22 10 21 11 -16 22 -55 17 -80 15 -131 -11 -38 -19 -45 -26 -42 -48 3 -26
2 -26 -48 -21 -42 4 -54 1 -69 -15 -16 -17 -37 -21 -137 -26 -299 -16 -540
-133 -590 -285 -16 -51 -16 -131 1 -174 4 -11 0 -18 -14 -23 -64 -20 35 -125
118 -125 l40 0 21 -69 21 -69 -69 -123 c-39 -68 -74 -123 -79 -122 -4 1 -28
10 -53 20 -54 20 -215 24 -275 6 -22 -7 -67 -29 -100 -48 -56 -34 -62 -36
-102 -26 -52 13 -177 14 -220 2 -26 -8 -33 -6 -37 7 -3 9 -23 79 -46 156 -23
76 -38 141 -35 144 3 4 34 -3 67 -15 33 -13 64 -20 69 -17 5 3 17 0 28 -5 17
-10 18 -7 14 33 -4 30 0 51 12 69 19 29 73 51 100 41 12 -5 16 -4 11 4 -4 6
-23 14 -44 18 -20 4 -64 24 -97 44 -33 20 -84 49 -112 65 -57 30 -58 33 -68
116 -5 47 -3 62 14 90 26 42 26 68 1 143 -11 32 -17 62 -15 66 3 5 19 11 35
15 17 4 35 16 41 27 16 30 29 5 29 -57 0 -27 6 -61 13 -75 15 -30 62 -49 79
-32 9 9 5 12 -19 12 -41 0 -54 18 -60 88 -5 57 -4 60 31 100 21 23 43 39 51
36 8 -3 46 2 85 12 70 17 71 17 100 -5 31 -23 50 -27 50 -11 0 6 7 10 15 10
43 0 48 111 9 189 -25 50 -32 56 -109 91 -45 21 -105 43 -134 49 -55 12 -124
15 -133 5z m66 -310 c10 -25 7 -37 -15 -63 -19 -23 -20 -23 -34 -5 -27 36 -13
84 26 84 9 0 20 -7 23 -16z m1384 -536 c3 -53 10 -60 100 -108 62 -33 67 -38
80 -85 27 -97 38 -90 -138 -93 l-155 -2 -95 95 c-59 59 -91 98 -85 104 18 17
270 140 280 137 6 -1 11 -23 13 -48z m-1797 -30 c-18 -50 -14 -92 12 -115 12
-11 57 -33 100 -48 l77 -28 15 -50 c8 -28 15 -52 15 -54 0 -2 -52 -3 -115 -3
-110 0 -115 1 -115 21 0 28 -55 81 -153 147 -42 29 -77 56 -77 61 0 5 10 13
22 17 12 4 68 29 123 55 55 27 102 44 103 39 2 -6 -1 -25 -7 -42z m2019 -118
c0 -18 -39 -10 -50 9 -16 30 -12 33 20 16 17 -9 30 -20 30 -25z m-633 -136
c-10 -10 -37 16 -37 34 0 13 4 12 22 -5 12 -13 19 -25 15 -29z m-1723 -9 l50
-35 -47 0 c-49 0 -51 1 -61 43 -8 35 -1 34 58 -8z m1685 -133 l19 -61 -52 -57
-52 -57 -29 26 -30 26 26 48 c67 126 84 152 91 145 5 -5 17 -36 27 -70z m105
62 c3 -9 -3 -29 -15 -46 -20 -27 -22 -28 -34 -11 -6 10 -15 30 -19 46 -6 25
-4 27 28 27 22 0 36 -6 40 -16z m520 -26 c-21 -24 -55 -61 -75 -83 -21 -22
-47 -53 -59 -68 -13 -17 -28 -26 -37 -23 -9 4 -32 -14 -62 -46 -29 -31 -52
-49 -59 -44 -17 10 -15 68 4 94 10 14 12 27 7 35 -13 18 -16 63 -8 124 l6 53
161 0 160 0 -38 -42z m-2270 -16 c2 -4 -5 -23 -17 -42 l-21 -33 -13 32 c-8 18
-11 36 -8 42 7 11 52 12 59 1z m506 -1 c0 -19 -143 -162 -150 -151 -5 7 -10 1
-14 -15 -6 -24 -149 -175 -166 -175 -4 0 -17 11 -29 24 l-23 24 37 41 c31 34
35 44 25 56 -10 12 -10 18 1 32 13 15 12 15 -9 2 -12 -8 -25 -21 -27 -30 -6
-17 -55 -67 -55 -55 0 8 135 212 158 239 13 14 33 17 134 17 65 0 118 -4 118
-9z m-755 -103 c3 -13 5 -64 3 -115 l-3 -92 -48 42 -49 42 39 72 c21 40 41 73
45 73 4 0 10 -10 13 -22z m1607 -70 c64 -19 65 -12 -47 -213 -15 -27 -32 -52
-37 -53 -4 -2 -6 -8 -2 -13 3 -5 1 -9 -3 -9 -5 0 -26 30 -47 67 -22 37 -66 93
-98 124 -50 48 -56 58 -44 69 44 36 199 52 278 28z m-1182 -36 c0 -14 -66 -73
-73 -66 -4 4 -7 2 -7 -4 0 -6 18 -28 39 -49 l40 -38 -68 -74 c-44 -49 -70 -71
-75 -63 -9 15 1 32 20 32 8 0 14 10 14 25 0 22 -4 25 -35 25 -40 0 -58 24 -53
73 3 27 7 32 33 32 22 1 46 17 90 58 58 55 75 66 75 49z m1333 -60 c44 -48 68
-85 81 -129 7 -21 4 -23 -31 -24 l-38 -2 40 -6 c34 -5 40 -10 43 -33 l3 -28
-145 0 c-80 0 -146 2 -146 5 0 3 25 51 56 107 30 57 61 115 67 131 6 15 14 27
18 27 3 0 27 -22 52 -48z m-561 -1 c35 -14 80 -42 113 -72 197 -181 143 -496
-105 -613 -59 -28 -74 -31 -165 -31 -87 0 -107 3 -157 27 -79 37 -142 98 -181
177 -29 60 -32 74 -32 161 0 82 4 103 27 152 29 62 105 146 157 172 29 16 32
16 38 -1 3 -10 28 -73 54 -140 27 -67 46 -129 43 -137 -3 -9 4 -29 16 -47 17
-23 28 -30 46 -26 21 4 29 -4 60 -64 33 -62 139 -179 163 -179 4 0 20 14 37
31 19 21 25 33 17 36 -7 3 -13 11 -13 19 0 7 -6 11 -13 8 -20 -7 -95 79 -125
144 -23 48 -27 71 -27 142 0 76 4 93 31 149 l32 63 -34 14 c-47 20 -50 19 -72
-28 -33 -73 -45 -121 -46 -184 -1 -52 -3 -61 -16 -54 -20 11 -107 277 -94 289
28 28 165 23 246 -8z m1042 -22 c-22 -24 -34 -24 -34 -1 0 25 7 31 31 25 19
-5 19 -7 3 -24z m-2327 -72 c63 -67 82 -103 81 -155 l0 -42 -134 0 c-83 0
-134 4 -134 10 0 6 4 10 10 10 5 0 9 3 8 8 -2 8 61 135 72 142 4 3 13 22 21
43 7 20 16 37 20 37 3 0 29 -24 56 -53z m1943 -192 c0 -17 -7 -29 -22 -35 -19
-7 -20 -9 -5 -9 21 -1 18 -20 -15 -84 -45 -90 -167 -170 -278 -182 -75 -8 -87
2 -60 49 24 44 50 145 50 199 0 28 4 37 18 38 16 1 16 2 0 6 -10 2 -18 8 -18
12 0 21 56 30 188 30 l142 1 0 -25z"/>
<path d="M3514 1549 c-2 -3 5 -14 16 -24 11 -10 20 -16 21 -14 7 36 4 47 -13
46 -11 -1 -21 -4 -24 -8z"/>
<path d="M1700 1482 c-14 -2 -29 -8 -34 -12 -5 -5 1 -6 13 -3 14 4 33 -2 51
-15 31 -23 40 -20 40 13 0 23 -12 26 -70 17z"/>
<path d="M2890 1271 c-9 -19 -8 -21 15 -21 28 0 32 12 11 29 -12 10 -17 8 -26
-8z"/>
<path d="M978 1023 c18 -2 45 -2 60 0 15 2 0 4 -33 4 -33 0 -45 -2 -27 -4z"/>
<path d="M3818 2793 c6 -2 18 -2 25 0 6 3 1 5 -13 5 -14 0 -19 -2 -12 -5z"/>
<path d="M3920 2776 c0 -9 40 -13 46 -5 3 5 -6 9 -20 9 -14 0 -26 -2 -26 -4z"/>
<path d="M3810 2756 c0 -11 140 -76 165 -76 39 0 30 14 -29 43 -51 25 -136 46
-136 33z"/>
<path d="M3721 2716 c-17 -20 2 -29 45 -21 30 5 33 9 24 21 -16 18 -54 18 -69
0z"/>
<path d="M4050 2722 c0 -5 27 -32 60 -61 66 -57 77 -56 29 2 -30 37 -89 76
-89 59z"/>
<path d="M3806 2651 c-7 -10 26 -33 79 -55 65 -27 74 -19 26 24 -42 39 -92 53
-105 31z"/>
<path d="M3670 2630 c-22 -41 6 -65 44 -37 16 12 15 14 -8 36 l-24 23 -12 -22z"/>
<path d="M4020 2641 c0 -10 62 -41 82 -41 21 1 -41 50 -63 50 -10 0 -19 -4
-19 -9z"/>
<path d="M4116 2541 c-7 -11 17 -21 49 -21 32 0 40 16 12 24 -32 8 -55 7 -61
-3z"/>
<path d="M4135 2490 c4 -6 11 -8 16 -5 14 9 11 15 -7 15 -8 0 -12 -5 -9 -10z"/>
<path d="M4055 1689 c-4 -6 -32 -9 -67 -7 -47 2 -63 -1 -71 -13 -35 -54 54
-68 121 -19 23 17 42 35 42 40 0 13 -17 13 -25 -1z"/>
<path d="M2340 1662 c0 -6 -14 -19 -32 -28 -27 -14 -38 -15 -84 -4 -59 14 -84
5 -84 -31 0 -40 81 -52 140 -20 35 18 78 76 66 88 -3 4 -6 1 -6 -5z"/>
<path d="M3874 1479 c-32 -9 -32 -9 -19 -46 l13 -37 89 3 c71 2 100 -2 146
-19 75 -28 156 -103 193 -177 25 -51 28 -69 28 -153 0 -87 -2 -100 -31 -155
-116 -225 -406 -268 -576 -86 -74 79 -92 127 -92 241 1 83 4 102 28 151 25 53
90 124 145 159 20 13 22 19 14 40 -6 14 -13 34 -17 45 -3 11 -9 15 -13 9 -4
-5 -24 -20 -44 -32 -64 -39 -143 -134 -173 -208 -23 -57 -28 -84 -29 -159 -1
-107 17 -168 75 -255 87 -129 225 -196 389 -188 77 4 98 9 163 41 176 87 277
276 248 463 -26 172 -156 315 -325 360 -57 15 -165 17 -212 3z"/>
<path d="M3830 1335 c0 -5 5 -17 10 -25 5 -8 10 -10 10 -5 0 6 -5 17 -10 25
-5 8 -10 11 -10 5z"/>
<path d="M3850 1285 c0 -5 5 -17 10 -25 5 -8 10 -10 10 -5 0 6 -5 17 -10 25
-5 8 -10 11 -10 5z"/>
<path d="M3932 1070 c0 -14 2 -19 5 -12 2 6 2 18 0 25 -3 6 -5 1 -5 -13z"/>
<path d="M3961 1071 c-19 -12 -6 -43 16 -39 10 2 18 12 18 22 0 22 -14 29 -34
17z"/>
<path d="M742 945 c0 -16 2 -22 5 -12 2 9 2 23 0 30 -3 6 -5 -1 -5 -18z"/>
<path d="M3208 953 c12 -2 30 -2 40 0 9 3 -1 5 -23 4 -22 0 -30 -2 -17 -4z"/>
<path d="M803 873 c9 -2 25 -2 35 0 9 3 1 5 -18 5 -19 0 -27 -2 -17 -5z"/>
<path d="M983 863 c15 -2 37 -2 50 0 12 2 0 4 -28 4 -27 0 -38 -2 -22 -4z"/>
<path d="M1360 765 c0 -12 13 -15 60 -15 71 0 80 15 14 24 -66 9 -74 8 -74 -9z"/>
</g>
</svg>
