<svg id="visual" viewBox="0 0 900 300" width="900" height="300" xmlns="http://www.w3.org/2000/svg" xmlns:xlink="http://www.w3.org/1999/xlink" version="1.1"><path d="M0 274L6.5 272C13 270 26 266 39 265C52 264 65 266 78 267.5C91 269 104 270 117.2 271.7C130.3 273.3 143.7 275.7 156.8 275.7C170 275.7 183 273.3 196 272C209 270.7 222 270.3 235 271.2C248 272 261 274 274 273.7C287 273.3 300 270.7 313 268.3C326 266 339 264 352 263.7C365 263.3 378 264.7 391 264.8C404 265 417 264 430.2 263.2C443.3 262.3 456.7 261.7 469.8 263.3C483 265 496 269 509 270.8C522 272.7 535 272.3 548 270.7C561 269 574 266 587 266.8C600 267.7 613 272.3 626 271.8C639 271.3 652 265.7 665 263.2C678 260.7 691 261.3 704 262C717 262.7 730 263.3 743.2 265.2C756.3 267 769.7 270 782.8 269.7C796 269.3 809 265.7 822 264.5C835 263.3 848 264.7 861 266.5C874 268.3 887 270.7 893.5 271.8L900 273L900 301L893.5 301C887 301 874 301 861 301C848 301 835 301 822 301C809 301 796 301 782.8 301C769.7 301 756.3 301 743.2 301C730 301 717 301 704 301C691 301 678 301 665 301C652 301 639 301 626 301C613 301 600 301 587 301C574 301 561 301 548 301C535 301 522 301 509 301C496 301 483 301 469.8 301C456.7 301 443.3 301 430.2 301C417 301 404 301 391 301C378 301 365 301 352 301C339 301 326 301 313 301C300 301 287 301 274 301C261 301 248 301 235 301C222 301 209 301 196 301C183 301 170 301 156.8 301C143.7 301 130.3 301 117.2 301C104 301 91 301 78 301C65 301 52 301 39 301C26 301 13 301 6.5 301L0 301Z" fill="#247b40"></path><path d="M0 278L6.5 278.8C13 279.7 26 281.3 39 280.5C52 279.7 65 276.3 78 276C91 275.7 104 278.3 117.2 279.3C130.3 280.3 143.7 279.7 156.8 279.5C170 279.3 183 279.7 196 279.8C209 280 222 280 235 279C248 278 261 276 274 275C287 274 300 274 313 274.7C326 275.3 339 276.7 352 278.2C365 279.7 378 281.3 391 280.7C404 280 417 277 430.2 276.7C443.3 276.3 456.7 278.7 469.8 280.2C483 281.7 496 282.3 509 280.8C522 279.3 535 275.7 548 274.7C561 273.7 574 275.3 587 276.8C600 278.3 613 279.7 626 280.2C639 280.7 652 280.3 665 278.5C678 276.7 691 273.3 704 271.8C717 270.3 730 270.7 743.2 272.8C756.3 275 769.7 279 782.8 279.5C796 280 809 277 822 275.8C835 274.7 848 275.3 861 276.5C874 277.7 887 279.3 893.5 280.2L900 281L900 301L893.5 301C887 301 874 301 861 301C848 301 835 301 822 301C809 301 796 301 782.8 301C769.7 301 756.3 301 743.2 301C730 301 717 301 704 301C691 301 678 301 665 301C652 301 639 301 626 301C613 301 600 301 587 301C574 301 561 301 548 301C535 301 522 301 509 301C496 301 483 301 469.8 301C456.7 301 443.3 301 430.2 301C417 301 404 301 391 301C378 301 365 301 352 301C339 301 326 301 313 301C300 301 287 301 274 301C261 301 248 301 235 301C222 301 209 301 196 301C183 301 170 301 156.8 301C143.7 301 130.3 301 117.2 301C104 301 91 301 78 301C65 301 52 301 39 301C26 301 13 301 6.5 301L0 301Z" fill="#1e6029"></path><path d="M0 285L6.5 284.5C13 284 26 283 39 283.3C52 283.7 65 285.3 78 285.3C91 285.3 104 283.7 117.2 282.5C130.3 281.3 143.7 280.7 156.8 281.3C170 282 183 284 196 284.5C209 285 222 284 235 284.2C248 284.3 261 285.7 274 285.2C287 284.7 300 282.3 313 282.3C326 282.3 339 284.7 352 285C365 285.3 378 283.7 391 282.5C404 281.3 417 280.7 430.2 281C443.3 281.3 456.7 282.7 469.8 282.8C483 283 496 282 509 282.3C522 282.7 535 284.3 548 285C561 285.7 574 285.3 587 285C600 284.7 613 284.3 626 283.5C639 282.7 652 281.3 665 281.3C678 281.3 691 282.7 704 282.7C717 282.7 730 281.3 743.2 281.2C756.3 281 769.7 282 782.8 282.7C796 283.3 809 283.7 822 284C835 284.3 848 284.7 861 284.8C874 285 887 285 893.5 285L900 285L900 301L893.5 301C887 301 874 301 861 301C848 301 835 301 822 301C809 301 796 301 782.8 301C769.7 301 756.3 301 743.2 301C730 301 717 301 704 301C691 301 678 301 665 301C652 301 639 301 626 301C613 301 600 301 587 301C574 301 561 301 548 301C535 301 522 301 509 301C496 301 483 301 469.8 301C456.7 301 443.3 301 430.2 301C417 301 404 301 391 301C378 301 365 301 352 301C339 301 326 301 313 301C300 301 287 301 274 301C261 301 248 301 235 301C222 301 209 301 196 301C183 301 170 301 156.8 301C143.7 301 130.3 301 117.2 301C104 301 91 301 78 301C65 301 52 301 39 301C26 301 13 301 6.5 301L0 301Z" fill="#154614"></path></svg>