<svg id="visual" viewBox="0 0 960 540" width="960" height="540" xmlns="http://www.w3.org/2000/svg" xmlns:xlink="http://www.w3.org/1999/xlink" version="1.1"><path d="M0 381L22.8 376.8C45.7 372.7 91.3 364.3 137 367.2C182.7 370 228.3 384 274 390.2C319.7 396.3 365.3 394.7 411.2 390.3C457 386 503 379 548.8 376.2C594.7 373.3 640.3 374.7 686 365.8C731.7 357 777.3 338 823 333.5C868.7 329 914.3 339 937.2 344L960 349L960 541L937.2 541C914.3 541 868.7 541 823 541C777.3 541 731.7 541 686 541C640.3 541 594.7 541 548.8 541C503 541 457 541 411.2 541C365.3 541 319.7 541 274 541C228.3 541 182.7 541 137 541C91.3 541 45.7 541 22.8 541L0 541Z" fill="#6caa67"></path><path d="M0 375L22.8 383.7C45.7 392.3 91.3 409.7 137 412.3C182.7 415 228.3 403 274 398.8C319.7 394.7 365.3 398.3 411.2 393.8C457 389.3 503 376.7 548.8 378.7C594.7 380.7 640.3 397.3 686 403.5C731.7 409.7 777.3 405.3 823 406.5C868.7 407.7 914.3 414.3 937.2 417.7L960 421L960 541L937.2 541C914.3 541 868.7 541 823 541C777.3 541 731.7 541 686 541C640.3 541 594.7 541 548.8 541C503 541 457 541 411.2 541C365.3 541 319.7 541 274 541C228.3 541 182.7 541 137 541C91.3 541 45.7 541 22.8 541L0 541Z" fill="#5b9a60"></path><path d="M0 416L22.8 422.7C45.7 429.3 91.3 442.7 137 442.8C182.7 443 228.3 430 274 425C319.7 420 365.3 423 411.2 424.2C457 425.3 503 424.7 548.8 425.7C594.7 426.7 640.3 429.3 686 428.5C731.7 427.7 777.3 423.3 823 424.8C868.7 426.3 914.3 433.7 937.2 437.3L960 441L960 541L937.2 541C914.3 541 868.7 541 823 541C777.3 541 731.7 541 686 541C640.3 541 594.7 541 548.8 541C503 541 457 541 411.2 541C365.3 541 319.7 541 274 541C228.3 541 182.7 541 137 541C91.3 541 45.7 541 22.8 541L0 541Z" fill="#4b8b59"></path><path d="M0 468L22.8 463.2C45.7 458.3 91.3 448.7 137 448.3C182.7 448 228.3 457 274 456.3C319.7 455.7 365.3 445.3 411.2 440.8C457 436.3 503 437.7 548.8 439.7C594.7 441.7 640.3 444.3 686 451.3C731.7 458.3 777.3 469.7 823 469.5C868.7 469.3 914.3 457.7 937.2 451.8L960 446L960 541L937.2 541C914.3 541 868.7 541 823 541C777.3 541 731.7 541 686 541C640.3 541 594.7 541 548.8 541C503 541 457 541 411.2 541C365.3 541 319.7 541 274 541C228.3 541 182.7 541 137 541C91.3 541 45.7 541 22.8 541L0 541Z" fill="#3c7c52"></path><path d="M0 480L22.8 480C45.7 480 91.3 480 137 481.8C182.7 483.7 228.3 487.3 274 486.2C319.7 485 365.3 479 411.2 483C457 487 503 501 548.8 507.7C594.7 514.3 640.3 513.7 686 506.5C731.7 499.3 777.3 485.7 823 485.7C868.7 485.7 914.3 499.3 937.2 506.2L960 513L960 541L937.2 541C914.3 541 868.7 541 823 541C777.3 541 731.7 541 686 541C640.3 541 594.7 541 548.8 541C503 541 457 541 411.2 541C365.3 541 319.7 541 274 541C228.3 541 182.7 541 137 541C91.3 541 45.7 541 22.8 541L0 541Z" fill="#2e6d4a"></path></svg>